<svg xmlns="http://www.w3.org/2000/svg" width="1000" height="1000"><path fill="#fff" stroke="#009" stroke-width="70" stroke-miterlimit="10" d="M500 35c256.81 0 465 208.19 465 465S756.81 965 500 965 35 756.81 35 500 243.19 35 500 35z"/><path fill="#009" d="M860.18 565.86c0-51.14-28.72-81.05-64.89-101.05l-27.45-14.93c-16.2-8.75-29.87-22.46-29.87-39.96 0-19.93 16.12-33.67 39.82-33.67 16.24 0 31.14 6.26 42.38 11.25 17.43 8.75 28.76-2.5 33.71-21.2 6.29-21.23-2.5-28.68-17.43-36.2-14.93-7.49-36.2-12.48-57.36-12.48-58.66 0-107.31 38.7-107.31 101.05 0 48.65 24.95 76.06 64.85 98.59l28.72 16.2c17.47 9.95 28.68 23.72 28.68 42.38 0 23.69-22.43 34.94-44.88 34.94-17.51 0-38.7-7.45-49.94-12.48-18.66-8.75-28.68 2.5-34.94 22.46-6.26 21.2 3.77 29.95 19.89 37.47 15.05 7.41 41.23 13.64 64.99 13.64 61.13 0 111.03-41.12 111.03-106.01zm-218.41-12.43V346.34c0-17.51-17.35-26.18-33.67-26.18-17.35 0-33.63 8.68-33.63 26.18v198.34c0 39.89-12.51 66.12-44.92 66.12-31.21 0-46.23-24.92-46.23-66.12V346.34c0-17.51-18.62-26.18-34.86-26.18-18.7 0-34.94 8.68-34.94 26.18v205.82c0 82.32 41.19 119.71 116.02 119.71 67.35 0 112.23-38.58 112.23-118.44zm-260.72 14.93c0-57.36-39.93-78.55-61.08-82.32v-1.23c24.95-12.51 54.83-36.2 54.83-78.59 0-57.4-49.87-84.84-98.55-84.84h-93.57c-17.35 0-27.41 13.71-27.41 28.68v291.9c0 17.47 17.43 26.26 33.67 26.26h88.58c53.69 0 103.53-28.76 103.53-99.86z"/><path fill="#fff" d="M304.92 422.39c0 32.48-27.41 43.65-56.1 43.65H222.6v-87.3h26.22c29.94 0 56.1 10.02 56.1 43.65zm10.01 138.45c0 33.71-18.62 49.94-58.59 49.94h-29.99V513.5h29.99c24.81 0 58.59 8.71 58.59 47.34z"/></svg>