<?xml version='1.0' encoding='utf-8'?>
<svg xmlns="http://www.w3.org/2000/svg" height="1000" id="Calque_1" version="1.1" width="1718" xml:space="preserve">
<rect height="1000" style="fill:#FFCD02;" width="1718" />
<g>
	<path d="M578.002,860h-161c0-93,25-153,87-268l172-320h-343V154h494v115C672.002,538,578.002,749,578.002,860z" />
	<path d="M1101,874c-75,0-139-20-194-51l52-110c34,23,74,45,134,45c55,0,124-31,124-114c0-51-34-121-164-122l-110-1l28-367h371v117   h-254l-10,135l20,1c193,10,271,117,271,223C1369,765,1262,874,1101,874z" />
</g>
</svg>