<?xml version='1.0' encoding='utf-8'?>
<svg xmlns="http://www.w3.org/2000/svg" height="1000" id="Calque_1" version="1.1" width="1718" xml:space="preserve">
<rect height="1000" style="fill:#ED1B2A;" width="1718" />
<g>
	<path d="M764.002,713v147h-136V713h-318V582l274-428h180v449h87v110H764.002z M628.002,278h-2   c-3,12-23,55-51,99l-144,226h197V278z" style="fill:#FFFFFF;" />
	<path d="M1094,874c-91,0-146-21-203-53l54-109c30,23,79,46,139,46c82,0,133-44,133-104c0-81-62-107-134-107   h-73V430h74c69,0,112-34,112-88c0-45-34-84-108-84c-65,0-108,31-131,51l-49-104c61-40,129-63,212-63c144,0,226,84,226,178   c0,73-39,129-114,157v2c78,15,137,73,137,172C1369,775,1258,874,1094,874z" style="fill:#FFFFFF;" />
</g>
</svg>