<?xml version='1.0' encoding='utf-8'?>
<svg xmlns="http://www.w3.org/2000/svg" height="1000" id="Calque_1" version="1.1" width="1718" xml:space="preserve">
<rect height="1000" style="fill:#BB4B9C;" width="1718" />
<g>
	<path d="M350.002,860v-93c18-82,99-154,193-236c47-41,98-90,98-158c0-61-40-110-117-110c-62,0-105,45-122,64   l-74-98c68-59,131-87,226-87c124,0,241,70,241,214c0,121-77,176-162,253c-36,33-107,92-116,133h291v118H350.002z" style="fill:#FFFFFF;" />
	<path d="M1324,713v147h-136V713H870V582l274-428h180v449h87v110H1324z M1188,278h-2c-3,12-23,55-51,99   L991,603h197V278z" style="fill:#FFFFFF;" />
</g>
</svg>