<?xml version='1.0' encoding='utf-8'?>
<svg xmlns="http://www.w3.org/2000/svg" height="1000" id="Calque_1" version="1.1" width="1718" xml:space="preserve">
<rect height="1000" style="fill:#F68F4B;" width="1718" />
<g>
	<path d="M320.802,824V324.503c-21.6,17.1-85.499,50.399-108.899,62.1l-33.3,17.1l-43.2-97.199l38.7-18   c73.799-34.2,142.199-77.4,170.999-99.899h110.7V824H320.802z" />
	<path d="M857.2,840.2c-191.698,0-229.498-185.399-229.498-332.099c0-146.698,41.399-332.097,233.097-332.097   c191.699,0,229.499,185.399,229.499,332.097C1090.298,654.801,1048.898,840.2,857.2,840.2z M859,283.104   c-91.799,0-94.499,160.199-94.499,224.998c0,63.9,4.5,225.899,94.499,225.899c90,0,93.599-162.899,93.599-225.899   C952.599,441.502,949.898,283.104,859,283.104z" />
	<path d="M1328.798,836.6c-67.5,0-125.1-18-174.6-45.899l46.8-98.999c30.601,20.699,66.6,40.499,120.6,40.499   c49.5,0,111.6-27.899,111.6-102.599c0-45.9-30.601-108.899-147.6-109.799l-98.999-0.9l25.199-330.298h333.898v105.299h-228.599   l-9,121.5l18,0.9c173.698,9,243.898,105.299,243.898,200.698C1569.996,738.501,1473.696,836.6,1328.798,836.6z" />
</g>
</svg>