<?xml version='1.0' encoding='utf-8'?>
<svg xmlns="http://www.w3.org/2000/svg" height="1000" id="Calque_1" version="1.1" width="1718" xml:space="preserve">
<rect height="1000" style="fill:#77C695;" width="1718" />
<g>
	<path d="M314.502,836.6c-81.899,0-131.399-18.899-182.699-47.699l48.6-98.1c27,20.7,71.1,41.399,125.099,41.399   c73.799,0,119.7-39.6,119.7-93.599c0-72.9-55.8-96.3-120.6-96.3h-65.7V437.002h66.6c62.1,0,100.799-30.6,100.799-79.199   c0-40.5-30.6-75.6-97.199-75.6c-58.5,0-97.199,27.9-117.899,45.9l-44.1-93.6c54.9-36,116.099-56.7,190.799-56.7   c129.599,0,203.398,75.6,203.398,160.199c0,65.699-35.1,116.099-102.6,141.299v1.8c70.2,13.5,123.3,65.699,123.3,154.799   C562,747.501,462.101,836.6,314.502,836.6z" />
	<path d="M856.299,838.4c-141.299,0-221.398-84.6-221.398-180.899c0-84.599,47.7-134.099,108.899-165.599   c-54.899-34.2-89.1-72.899-89.1-138.599c0-105.299,95.399-178.199,204.299-178.199c111.599,0,204.298,54.899,204.298,163.799   c0,59.399-30.6,105.299-89.999,141.299c58.499,27.899,109.799,78.3,109.799,161.999C1083.098,762.801,986.799,838.4,856.299,838.4z    M845.5,536.002c-41.399,16.199-82.799,57.6-82.799,107.1c0,52.199,34.199,101.699,95.399,101.699   c60.298,0,93.598-42.3,93.598-92.699C951.698,594.502,899.499,563.002,845.5,536.002z M860.799,266.904   c-49.499,0-80.999,30.6-80.999,74.7c0,52.199,52.199,80.099,92.699,97.199c33.3-15.3,69.3-52.2,69.3-91.799   C941.799,302.903,912.999,266.904,860.799,266.904z" />
	<path d="M1361.197,840.2c-191.698,0-229.498-185.399-229.498-332.099c0-146.698,41.399-332.097,233.098-332.097   c191.699,0,229.499,185.399,229.499,332.097C1594.296,654.801,1552.896,840.2,1361.197,840.2z M1362.997,283.104   c-91.799,0-94.499,160.199-94.499,224.998c0,63.9,4.5,225.899,94.499,225.899c90,0,93.6-162.899,93.6-225.899   C1456.597,441.502,1453.896,283.104,1362.997,283.104z" />
</g>
</svg>