<?xml version='1.0' encoding='utf-8'?>
<svg xmlns="http://www.w3.org/2000/svg" height="1000" id="Calque_1" version="1.1" width="1718" xml:space="preserve">
<rect height="1000" style="fill:#87D3DF;" width="1718" />
<g>
	<path d="M576.002,876c-157,0-246-94-246-201c0-94,53-149,121-184c-61-38-99-81-99-154c0-117,106-198,227-198c124,0,227,61,227,182   c0,66-34,117-100,157c65,31,122,87,122,180C828.002,792,721.002,876,576.002,876z M564.002,540c-46,18-92,64-92,119   c0,58,38,113,106,113c67,0,104-47,104-103C682.002,605,624.002,570,564.002,540z M581.002,241c-55,0-90,34-90,83   c0,58,58,89,103,108c37-17,77-58,77-102C671.002,281,639.002,241,581.002,241z" />
	<path d="M1053,872c-40,0-76-5-105-12l22-120c19,8,55,17,95,17c97,0,170-71,179-213c-24,21-69,48-144,48c-115,0-209-77-209-209   c0-141,94-244,239-244c190,0,258,133,258,320C1388,704,1275,872,1053,872z M1135,250c-68,0-103,57-103,118c0,66,43,113,111,113   c43,0,78-17,92-39c8-12,8-39,8-60C1243,315,1205,250,1135,250z" />
</g>
</svg>