<?xml version='1.0' encoding='utf-8'?>
<svg xmlns="http://www.w3.org/2000/svg" height="1000" id="Calque_1" version="1.1" width="1718" xml:space="preserve">
<rect height="1000" style="fill:#006CB8;" width="1718" />
<g>
	<path d="M320.802,824V324.503c-21.6,17.1-85.499,50.399-108.899,62.1l-33.3,17.1l-43.2-97.199l38.7-18   c73.799-34.2,142.199-77.4,170.999-99.899h110.7V824H320.802z" style="fill:#FFFFFF;" />
	<path d="M858.1,824H713.201c0-83.699,22.5-137.699,78.3-241.198l154.798-287.998H637.601V188.604h444.597   v103.499C942.698,534.202,858.1,724.101,858.1,824z" style="fill:#FFFFFF;" />
	<path d="M1322.498,836.6c-81.899,0-131.399-18.899-182.699-47.699l48.6-98.1   c27,20.7,71.1,41.399,125.1,41.399c73.799,0,119.699-39.6,119.699-93.599c0-72.9-55.8-96.3-120.6-96.3h-65.699V437.002h66.6   c62.1,0,100.799-30.6,100.799-79.199c0-40.5-30.6-75.6-97.199-75.6c-58.5,0-97.199,27.9-117.899,45.9l-44.1-93.6   c54.899-36,116.1-56.7,190.799-56.7c129.599,0,203.398,75.6,203.398,160.199c0,65.699-35.1,116.099-102.6,141.299v1.8   c70.2,13.5,123.3,65.699,123.3,154.799C1569.996,747.501,1470.097,836.6,1322.498,836.6z" style="fill:#FFFFFF;" />
</g>
</svg>