<?xml version='1.0' encoding='utf-8'?>
<svg xmlns="http://www.w3.org/2000/svg" height="1000" id="Calque_1" version="1.1" width="1718" xml:space="preserve">
<rect height="1000" style="fill:#77C695;" width="1718" />
<g>
	<path d="M534.002,874c-91,0-146-21-203-53l54-109c30,23,79,46,139,46c82,0,133-44,133-104c0-81-62-107-134-107h-73V430h74   c69,0,112-34,112-88c0-45-34-84-108-84c-65,0-108,31-131,51l-49-104c61-40,129-63,212-63c144,0,226,84,226,178c0,73-39,129-114,157   v2c78,15,137,73,137,172C809.002,775,698.002,874,534.002,874z" />
	<path d="M1101,874c-75,0-139-20-194-51l52-110c34,23,74,45,134,45c55,0,124-31,124-114c0-51-34-121-164-122l-110-1l28-367h371v117   h-254l-10,135l20,1c193,10,271,117,271,223C1369,765,1262,874,1101,874z" />
</g>
</svg>