<?xml version='1.0' encoding='utf-8'?>
<svg xmlns="http://www.w3.org/2000/svg" height="1000" id="Calque_1" version="1.1" width="1718" xml:space="preserve">
<rect height="1000" style="fill:#ED1B2A;" width="1718" />
<g>
	<path d="M320.802,824V324.503c-21.6,17.1-85.499,50.399-108.899,62.1l-33.3,17.1l-43.2-97.199l38.7-18   c73.799-34.2,142.199-77.4,170.999-99.899h110.7V824H320.802z" style="fill:#FFFFFF;" />
	<path d="M1025.498,691.701V824H903.099V691.701H616.902V573.802l246.597-385.197h161.999v404.097h78.3v99   H1025.498z M903.099,300.204h-1.8c-2.7,10.8-20.7,49.5-45.899,89.099L725.8,592.701h177.298V300.204z" style="fill:#FFFFFF;" />
	<path d="M1361.197,840.2c-191.698,0-229.498-185.399-229.498-332.099   c0-146.698,41.399-332.097,233.098-332.097c191.699,0,229.499,185.399,229.499,332.097   C1594.296,654.801,1552.896,840.2,1361.197,840.2z M1362.997,283.104c-91.799,0-94.499,160.199-94.499,224.998   c0,63.9,4.5,225.899,94.499,225.899c90,0,93.6-162.899,93.6-225.899C1456.597,441.502,1453.896,283.104,1362.997,283.104z" style="fill:#FFFFFF;" />
</g>
</svg>