<?xml version='1.0' encoding='utf-8'?>
<svg xmlns="http://www.w3.org/2000/svg" height="1000" id="Calque_1" version="1.1" width="1718" xml:space="preserve">
<rect height="1000" style="fill:#8D653A;" width="1718" />
<g>
	<path d="M593.002,876c-190,0-258-133-258-320c0-245,113-413,335-413c40,0,76,5,105,12l-22,120   c-19-8-55-17-95-17c-97,0-170,71-179,213c24-21,69-48,144-48c115,0,209,77,209,209C832.002,773,738.002,876,593.002,876z    M580.002,534c-43,0-78,17-92,39c-8,12-8,39-8,60c0,67,38,132,108,132c68,0,103-57,103-118C691.002,581,648.002,534,580.002,534z" style="fill:#FFFFFF;" />
	<path d="M910,860v-93c18-82,99-154,193-236c47-41,98-90,98-158c0-61-40-110-117-110c-62,0-105,45-122,64   l-74-98c68-59,131-87,226-87c124,0,241,70,241,214c0,121-77,176-162,253c-36,33-107,92-116,133h291v118H910z" style="fill:#FFFFFF;" />
</g>
</svg>