<?xml version='1.0' encoding='utf-8'?>
<svg xmlns="http://www.w3.org/2000/svg" height="1000" id="Calque_1" version="1.1" width="1718" xml:space="preserve">
<rect height="1000" style="fill:#77C695;" width="1718" />
<g>
	<path d="M493.002,872c-40,0-76-5-105-12l22-120c19,8,55,17,95,17c97,0,170-71,179-213c-24,21-69,48-144,48c-115,0-209-77-209-209   c0-141,94-244,239-244c190,0,258,133,258,320C828.002,704,715.002,872,493.002,872z M575.002,250c-68,0-103,57-103,118   c0,66,43,113,111,113c43,0,78-17,92-39c8-12,8-39,8-60C683.002,315,645.002,250,575.002,250z" />
	<path d="M1094,874c-91,0-146-21-203-53l54-109c30,23,79,46,139,46c82,0,133-44,133-104c0-81-62-107-134-107h-73V430h74   c69,0,112-34,112-88c0-45-34-84-108-84c-65,0-108,31-131,51l-49-104c61-40,129-63,212-63c144,0,226,84,226,178c0,73-39,129-114,157   v2c78,15,137,73,137,172C1369,775,1258,874,1094,874z" />
</g>
</svg>