<?xml version='1.0' encoding='utf-8'?>
<svg xmlns="http://www.w3.org/2000/svg" height="1000" id="Calque_1" version="1.1" width="1718" xml:space="preserve">
<rect height="1000" style="fill:#652C90;" width="1718" />
<g>
	<path d="M314.502,836.6c-81.899,0-131.399-18.899-182.699-47.699l48.6-98.1   c27,20.7,71.1,41.399,125.099,41.399c73.799,0,119.7-39.6,119.7-93.599c0-72.9-55.8-96.3-120.6-96.3h-65.7V437.002h66.6   c62.1,0,100.799-30.6,100.799-79.199c0-40.5-30.6-75.6-97.199-75.6c-58.5,0-97.199,27.9-117.899,45.9l-44.1-93.6   c54.9-36,116.099-56.7,190.799-56.7c129.599,0,203.398,75.6,203.398,160.199c0,65.699-35.1,116.099-102.6,141.299v1.8   c70.2,13.5,123.3,65.699,123.3,154.799C562,747.501,462.101,836.6,314.502,836.6z" style="fill:#FFFFFF;" />
	<path d="M824.8,836.6c-67.5,0-125.1-18-174.6-45.899l46.8-98.999C727.601,712.4,763.6,732.2,817.6,732.2   c49.5,0,111.599-27.899,111.599-102.599c0-45.9-30.601-108.899-147.599-109.799l-98.999-0.9L707.8,188.604h333.898v105.299H813.1   l-9,121.5l18,0.9c173.698,9,243.898,105.299,243.898,200.698C1065.998,738.501,969.698,836.6,824.8,836.6z" style="fill:#FFFFFF;" />
	<path d="M1361.197,840.2c-191.698,0-229.498-185.399-229.498-332.099   c0-146.698,41.399-332.097,233.098-332.097c191.699,0,229.499,185.399,229.499,332.097   C1594.296,654.801,1552.896,840.2,1361.197,840.2z M1362.997,283.104c-91.799,0-94.499,160.199-94.499,224.998   c0,63.9,4.5,225.899,94.499,225.899c90,0,93.6-162.899,93.6-225.899C1456.597,441.502,1453.896,283.104,1362.997,283.104z" style="fill:#FFFFFF;" />
</g>
</svg>