<?xml version='1.0' encoding='utf-8'?>
<svg xmlns="http://www.w3.org/2000/svg" height="1000" id="Calque_1" version="1.1" width="1718" xml:space="preserve">
<rect height="1000" style="fill:#008B5A;" width="1718" />
<g>
	<path d="M320.802,836.6c-67.5,0-125.099-18-174.599-45.899l46.8-98.999   c30.6,20.699,66.6,40.499,120.599,40.499c49.5,0,111.6-27.899,111.6-102.599c0-45.9-30.601-108.899-147.6-109.799l-98.999-0.9   l25.2-330.298h333.898v105.299H309.102l-9,121.5l18,0.9C491.8,425.303,562,521.602,562,617.001   C562,738.501,465.701,836.6,320.802,836.6z" style="fill:#FFFFFF;" />
	<path d="M652.901,824v-83.699c16.2-73.8,89.1-138.6,173.699-212.398c42.299-36.9,88.199-81,88.199-142.199   c0-54.9-36-99-105.298-99c-55.8,0-94.5,40.5-109.8,57.6l-66.6-88.199c61.2-53.1,117.899-78.3,203.398-78.3   c111.599,0,216.898,63,216.898,192.599c0,108.899-69.299,158.398-145.799,227.698c-32.399,29.7-96.298,82.8-104.399,119.699   h261.898V824H652.901z" style="fill:#FFFFFF;" />
	<path d="M1361.197,840.2c-191.698,0-229.498-185.399-229.498-332.099   c0-146.698,41.399-332.097,233.098-332.097c191.699,0,229.499,185.399,229.499,332.097   C1594.296,654.801,1552.896,840.2,1361.197,840.2z M1362.997,283.104c-91.799,0-94.499,160.199-94.499,224.998   c0,63.9,4.5,225.899,94.499,225.899c90,0,93.6-162.899,93.6-225.899C1456.597,441.502,1453.896,283.104,1362.997,283.104z" style="fill:#FFFFFF;" />
</g>
</svg>