<?xml version='1.0' encoding='utf-8'?>
<svg xmlns="http://www.w3.org/2000/svg" height="1000" id="Calque_1" version="1.1" width="1718" xml:space="preserve">
<rect height="1000" style="fill:#F59EB3;" width="1718" />
<g>
	<path d="M148.903,824v-83.699c16.2-73.8,89.099-138.6,173.699-212.398c42.3-36.9,88.199-81,88.199-142.199c0-54.9-36-99-105.299-99   c-55.799,0-94.5,40.5-109.799,57.6l-66.6-88.199c61.2-53.1,117.899-78.3,203.399-78.3c111.599,0,216.898,63,216.898,192.599   c0,108.899-69.299,158.398-145.799,227.698c-32.399,29.7-96.299,82.8-104.399,119.699H561.1V824H148.903z" />
	<path d="M858.1,824H713.201c0-83.699,22.5-137.699,78.3-241.198l154.798-287.998H637.601V188.604h444.597v103.499   C942.698,534.202,858.1,724.101,858.1,824z" />
	<path d="M1361.197,840.2c-191.698,0-229.498-185.399-229.498-332.099c0-146.698,41.399-332.097,233.098-332.097   c191.699,0,229.499,185.399,229.499,332.097C1594.296,654.801,1552.896,840.2,1361.197,840.2z M1362.997,283.104   c-91.799,0-94.499,160.199-94.499,224.998c0,63.9,4.5,225.899,94.499,225.899c90,0,93.6-162.899,93.6-225.899   C1456.597,441.502,1453.896,283.104,1362.997,283.104z" />
</g>
</svg>