<?xml version='1.0' encoding='utf-8'?>
<svg xmlns="http://www.w3.org/2000/svg" height="1000" id="Calque_1" version="1.1" width="1718" xml:space="preserve">
<rect height="1000" style="fill:#BB4B9C;" width="1718" />
<g>
	<path d="M148.903,824v-83.699c16.2-73.8,89.099-138.6,173.699-212.398c42.3-36.9,88.199-81,88.199-142.199   c0-54.9-36-99-105.299-99c-55.799,0-94.5,40.5-109.799,57.6l-66.6-88.199c61.2-53.1,117.899-78.3,203.399-78.3   c111.599,0,216.898,63,216.898,192.599c0,108.899-69.299,158.398-145.799,227.698c-32.399,29.7-96.299,82.8-104.399,119.699H561.1   V824H148.903z" style="fill:#FFFFFF;" />
	<path d="M818.5,836.6c-81.899,0-131.399-18.899-182.699-47.699l48.6-98.1c27,20.7,71.1,41.399,125.1,41.399   c73.798,0,119.699-39.6,119.699-93.599c0-72.9-55.8-96.3-120.599-96.3h-65.699V437.002h66.6c62.099,0,100.798-30.6,100.798-79.199   c0-40.5-30.6-75.6-97.199-75.6c-58.5,0-97.199,27.9-117.899,45.9l-44.1-93.6c54.899-36,116.1-56.7,190.799-56.7   c129.598,0,203.398,75.6,203.398,160.199c0,65.699-35.1,116.099-102.6,141.299v1.8c70.2,13.5,123.3,65.699,123.3,154.799   C1065.998,747.501,966.099,836.6,818.5,836.6z" style="fill:#FFFFFF;" />
	<path d="M1285.598,834.8c-36,0-68.399-4.5-94.499-10.8l19.8-107.999c17.1,7.2,49.5,15.3,85.499,15.3   c87.3,0,152.999-63.899,161.1-191.699c-21.601,18.9-62.1,43.2-129.6,43.2c-103.499,0-188.099-69.3-188.099-188.099   c0-126.899,84.6-219.599,215.099-219.599c170.999,0,232.198,119.699,232.198,287.998   C1587.096,683.601,1485.396,834.8,1285.598,834.8z M1359.397,275.004c-61.199,0-92.699,51.299-92.699,106.199   c0,59.399,38.699,101.699,99.899,101.699c38.699,0,70.199-15.3,82.799-35.1c7.2-10.8,7.2-35.1,7.2-54   C1456.597,333.503,1422.396,275.004,1359.397,275.004z" style="fill:#FFFFFF;" />
</g>
</svg>