<?xml version='1.0' encoding='utf-8'?>
<svg xmlns="http://www.w3.org/2000/svg" height="1000" id="Calque_1" version="1.1" width="1718" xml:space="preserve">
<rect height="1000" style="fill:#87D3DF;" width="1718" />
<g>
	<path d="M541.002,874c-75,0-139-20-194-51l52-110c34,23,74,45,134,45c55,0,124-31,124-114c0-51-34-121-164-122l-110-1l28-367h371   v117h-254l-10,135l20,1c193,10,271,117,271,223C809.002,765,702.002,874,541.002,874z" />
	<path d="M910,860v-93c18-82,99-154,193-236c47-41,98-90,98-158c0-61-40-110-117-110c-62,0-105,45-122,64l-74-98   c68-59,131-87,226-87c124,0,241,70,241,214c0,121-77,176-162,253c-36,33-107,92-116,133h291v118H910z" />
</g>
</svg>