<?xml version='1.0' encoding='utf-8'?>
<svg xmlns="http://www.w3.org/2000/svg" height="1000" id="Calque_1" version="1.1" width="1718" xml:space="preserve">
<rect height="1000" style="fill:#77C695;" width="1718" />
<g>
	<path d="M148.903,824v-83.699c16.2-73.8,89.099-138.6,173.699-212.398c42.3-36.9,88.199-81,88.199-142.199c0-54.9-36-99-105.299-99   c-55.799,0-94.5,40.5-109.799,57.6l-66.6-88.199c61.2-53.1,117.899-78.3,203.399-78.3c111.599,0,216.898,63,216.898,192.599   c0,108.899-69.299,158.398-145.799,227.698c-32.399,29.7-96.299,82.8-104.399,119.699H561.1V824H148.903z" />
	<path d="M824.8,824V324.503c-21.601,17.1-85.5,50.399-108.899,62.1l-33.3,17.1l-43.2-97.199l38.7-18   c73.8-34.2,142.199-77.4,170.999-99.899h110.699V824H824.8z" />
	<path d="M1328.798,836.6c-67.5,0-125.1-18-174.6-45.899l46.8-98.999c30.601,20.699,66.6,40.499,120.6,40.499   c49.5,0,111.6-27.899,111.6-102.599c0-45.9-30.601-108.899-147.6-109.799l-98.999-0.9l25.199-330.298h333.898v105.299h-228.599   l-9,121.5l18,0.9c173.698,9,243.898,105.299,243.898,200.698C1569.996,738.501,1473.696,836.6,1328.798,836.6z" />
</g>
</svg>