<?xml version='1.0' encoding='utf-8'?>
<svg xmlns="http://www.w3.org/2000/svg" height="1000" id="Calque_1" version="1.1" width="1718" xml:space="preserve">
<rect height="1000" style="fill:#FFCD02;" width="1718" />
<g>
	<path d="M314.502,836.6c-81.899,0-131.399-18.899-182.699-47.699l48.6-98.1c27,20.7,71.1,41.399,125.099,41.399   c73.799,0,119.7-39.6,119.7-93.599c0-72.9-55.8-96.3-120.6-96.3h-65.7V437.002h66.6c62.1,0,100.799-30.6,100.799-79.199   c0-40.5-30.6-75.6-97.199-75.6c-58.5,0-97.199,27.9-117.899,45.9l-44.1-93.6c54.9-36,116.099-56.7,190.799-56.7   c129.599,0,203.398,75.6,203.398,160.199c0,65.699-35.1,116.099-102.6,141.299v1.8c70.2,13.5,123.3,65.699,123.3,154.799   C562,747.501,462.101,836.6,314.502,836.6z" />
	<path d="M818.5,836.6c-81.899,0-131.399-18.899-182.699-47.699l48.6-98.1c27,20.7,71.1,41.399,125.1,41.399   c73.798,0,119.699-39.6,119.699-93.599c0-72.9-55.8-96.3-120.599-96.3h-65.699V437.002h66.6c62.099,0,100.798-30.6,100.798-79.199   c0-40.5-30.6-75.6-97.199-75.6c-58.5,0-97.199,27.9-117.899,45.9l-44.1-93.6c54.899-36,116.1-56.7,190.799-56.7   c129.598,0,203.398,75.6,203.398,160.199c0,65.699-35.1,116.099-102.6,141.299v1.8c70.2,13.5,123.3,65.699,123.3,154.799   C1065.998,747.501,966.099,836.6,818.5,836.6z" />
	<path d="M1529.496,691.701V824h-122.399V691.701h-286.197V573.802l246.598-385.197h161.999v404.097h78.3v99H1529.496z    M1407.097,300.204h-1.8c-2.7,10.8-20.7,49.5-45.899,89.099l-129.6,203.398h177.299V300.204z" />
</g>
</svg>