<?xml version='1.0' encoding='utf-8'?>
<svg xmlns="http://www.w3.org/2000/svg" height="1000" id="Calque_1" version="1.1" width="1718" xml:space="preserve">
<rect height="1000" style="fill:#BB499C;" width="1718" />
<g>
	<path d="M320.802,824V324.503c-21.6,17.1-85.499,50.399-108.899,62.1l-33.3,17.1l-43.2-97.199l38.7-18   c73.799-34.2,142.199-77.4,170.999-99.899h110.7V824H320.802z" style="fill:#FFFFFF;" />
	<path d="M824.8,836.6c-67.5,0-125.1-18-174.6-45.899l46.8-98.999C727.601,712.4,763.6,732.2,817.6,732.2   c49.5,0,111.599-27.899,111.599-102.599c0-45.9-30.601-108.899-147.599-109.799l-98.999-0.9L707.8,188.604h333.898v105.299H813.1   l-9,121.5l18,0.9c173.698,9,243.898,105.299,243.898,200.698C1065.998,738.501,969.698,836.6,824.8,836.6z" style="fill:#FFFFFF;" />
	<path d="M1362.098,824h-144.899c0-83.699,22.5-137.699,78.3-241.198l154.799-287.998h-308.698V188.604   h444.598v103.499C1446.696,534.202,1362.098,724.101,1362.098,824z" style="fill:#FFFFFF;" />
</g>
</svg>