<?xml version='1.0' encoding='utf-8'?>
<svg xmlns="http://www.w3.org/2000/svg" height="1000" id="Calque_1" version="1.1" width="1718" xml:space="preserve">
<rect height="1000" style="fill:#FFCD02;" width="1718" />
<g>
	<path d="M576.002,876c-157,0-246-94-246-201c0-94,53-149,121-184c-61-38-99-81-99-154c0-117,106-198,227-198c124,0,227,61,227,182   c0,66-34,117-100,157c65,31,122,87,122,180C828.002,792,721.002,876,576.002,876z M564.002,540c-46,18-92,64-92,119   c0,58,38,113,106,113c67,0,104-47,104-103C682.002,605,624.002,570,564.002,540z M581.002,241c-55,0-90,34-90,83   c0,58,58,89,103,108c37-17,77-58,77-102C671.002,281,639.002,241,581.002,241z" />
	<path d="M1094,874c-91,0-146-21-203-53l54-109c30,23,79,46,139,46c82,0,133-44,133-104c0-81-62-107-134-107h-73V430h74   c69,0,112-34,112-88c0-45-34-84-108-84c-65,0-108,31-131,51l-49-104c61-40,129-63,212-63c144,0,226,84,226,178c0,73-39,129-114,157   v2c78,15,137,73,137,172C1369,775,1258,874,1094,874z" />
</g>
</svg>