<?xml version='1.0' encoding='utf-8'?>
<svg xmlns="http://www.w3.org/2000/svg" height="1000" id="Calque_1" version="1.1" width="1718" xml:space="preserve">
<rect height="1000" style="fill:#ED1B2A;" width="1718" />
<g>
	<path d="M320.802,824V324.503c-21.6,17.1-85.499,50.399-108.899,62.1l-33.3,17.1l-43.2-97.199l38.7-18   c73.799-34.2,142.199-77.4,170.999-99.899h110.7V824H320.802z" style="fill:#FFFFFF;" />
	<path d="M857.2,840.2c-191.698,0-229.498-185.399-229.498-332.099c0-146.698,41.399-332.097,233.097-332.097   c191.699,0,229.499,185.399,229.499,332.097C1090.298,654.801,1048.898,840.2,857.2,840.2z M859,283.104   c-91.799,0-94.499,160.199-94.499,224.998c0,63.9,4.5,225.899,94.499,225.899c90,0,93.599-162.899,93.599-225.899   C952.599,441.502,949.898,283.104,859,283.104z" style="fill:#FFFFFF;" />
	<path d="M1375.598,838.4c-170.999,0-232.199-119.699-232.199-287.998   c0-220.499,101.699-371.698,301.498-371.698c36,0,68.399,4.5,94.5,10.8l-19.8,107.999c-17.101-7.2-49.5-15.3-85.5-15.3   c-87.299,0-152.999,63.899-161.099,191.699c21.6-18.9,62.1-43.2,129.599-43.2c103.5,0,188.099,69.299,188.099,188.099   C1590.695,745.7,1506.097,838.4,1375.598,838.4z M1363.897,530.602c-38.7,0-70.199,15.301-82.8,35.1c-7.2,10.801-7.2,35.101-7.2,54   c0,60.3,34.2,118.8,97.2,118.8c61.199,0,92.699-51.3,92.699-106.199C1463.797,572.902,1425.097,530.602,1363.897,530.602z" style="fill:#FFFFFF;" />
</g>
</svg>