<?xml version='1.0' encoding='utf-8'?>
<svg xmlns="http://www.w3.org/2000/svg" height="1000" id="Calque_1" version="1.1" width="1718" xml:space="preserve">
<rect height="1000" style="fill:#8D653A;" width="1718" />
<g>
	<path d="M493.002,872c-40,0-76-5-105-12l22-120c19,8,55,17,95,17c97,0,170-71,179-213c-24,21-69,48-144,48   c-115,0-209-77-209-209c0-141,94-244,239-244c190,0,258,133,258,320C828.002,704,715.002,872,493.002,872z M575.002,250   c-68,0-103,57-103,118c0,66,43,113,111,113c43,0,78-17,92-39c8-12,8-39,8-60C683.002,315,645.002,250,575.002,250z" style="fill:#FFFFFF;" />
	<path d="M1101,874c-75,0-139-20-194-51l52-110c34,23,74,45,134,45c55,0,124-31,124-114c0-51-34-121-164-122   l-110-1l28-367h371v117h-254l-10,135l20,1c193,10,271,117,271,223C1369,765,1262,874,1101,874z" style="fill:#FFFFFF;" />
</g>
</svg>