<?xml version='1.0' encoding='utf-8'?>
<svg xmlns="http://www.w3.org/2000/svg" height="1000" id="Calque_1" version="1.1" width="1718" xml:space="preserve">
<rect height="1000" style="fill:#87D3DF;" width="1718" />
<g>
	<path d="M593.002,876c-190,0-258-133-258-320c0-245,113-413,335-413c40,0,76,5,105,12l-22,120c-19-8-55-17-95-17   c-97,0-170,71-179,213c24-21,69-48,144-48c115,0,209,77,209,209C832.002,773,738.002,876,593.002,876z M580.002,534   c-43,0-78,17-92,39c-8,12-8,39-8,60c0,67,38,132,108,132c68,0,103-57,103-118C691.002,581,648.002,534,580.002,534z" />
	<path d="M1053,872c-40,0-76-5-105-12l22-120c19,8,55,17,95,17c97,0,170-71,179-213c-24,21-69,48-144,48c-115,0-209-77-209-209   c0-141,94-244,239-244c190,0,258,133,258,320C1388,704,1275,872,1053,872z M1135,250c-68,0-103,57-103,118c0,66,43,113,111,113   c43,0,78-17,92-39c8-12,8-39,8-60C1243,315,1205,250,1135,250z" />
</g>
</svg>