<?xml version='1.0' encoding='utf-8'?>
<svg xmlns="http://www.w3.org/2000/svg" height="1000" id="Calque_1" version="1.1" width="1718" xml:space="preserve">
<rect height="1000" style="fill:#CEC92A;" width="1718" />
<g>
	<path d="M764.002,713v147h-136V713h-318V582l274-428h180v449h87v110H764.002z M628.002,278h-2c-3,12-23,55-51,99l-144,226h197V278z   " />
	<path d="M1153,876c-190,0-258-133-258-320c0-245,113-413,335-413c40,0,76,5,105,12l-22,120c-19-8-55-17-95-17c-97,0-170,71-179,213   c24-21,69-48,144-48c115,0,209,77,209,209C1392,773,1298,876,1153,876z M1140,534c-43,0-78,17-92,39c-8,12-8,39-8,60   c0,67,38,132,108,132c68,0,103-57,103-118C1251,581,1208,534,1140,534z" />
</g>
</svg>