<?xml version='1.0' encoding='utf-8'?>
<svg xmlns="http://www.w3.org/2000/svg" height="1000" id="Calque_1" version="1.1" width="1718" xml:space="preserve">
<rect height="1000" style="fill:#F68F4B;" width="1718" />
<g>
	<path d="M320.802,824V324.503c-21.6,17.1-85.499,50.399-108.899,62.1l-33.3,17.1l-43.2-97.199l38.7-18   c73.799-34.2,142.199-77.4,170.999-99.899h110.7V824H320.802z" />
	<path d="M818.5,836.6c-81.899,0-131.399-18.899-182.699-47.699l48.6-98.1c27,20.7,71.1,41.399,125.1,41.399   c73.798,0,119.699-39.6,119.699-93.599c0-72.9-55.8-96.3-120.599-96.3h-65.699V437.002h66.6c62.099,0,100.798-30.6,100.798-79.199   c0-40.5-30.6-75.6-97.199-75.6c-58.5,0-97.199,27.9-117.899,45.9l-44.1-93.6c54.899-36,116.1-56.7,190.799-56.7   c129.598,0,203.398,75.6,203.398,160.199c0,65.699-35.1,116.099-102.6,141.299v1.8c70.2,13.5,123.3,65.699,123.3,154.799   C1065.998,747.501,966.099,836.6,818.5,836.6z" />
	<path d="M1285.598,834.8c-36,0-68.399-4.5-94.499-10.8l19.8-107.999c17.1,7.2,49.5,15.3,85.499,15.3   c87.3,0,152.999-63.899,161.1-191.699c-21.601,18.9-62.1,43.2-129.6,43.2c-103.499,0-188.099-69.3-188.099-188.099   c0-126.899,84.6-219.599,215.099-219.599c170.999,0,232.198,119.699,232.198,287.998   C1587.096,683.601,1485.396,834.8,1285.598,834.8z M1359.397,275.004c-61.199,0-92.699,51.299-92.699,106.199   c0,59.399,38.699,101.699,99.899,101.699c38.699,0,70.199-15.3,82.799-35.1c7.2-10.8,7.2-35.1,7.2-54   C1456.597,333.503,1422.396,275.004,1359.397,275.004z" />
</g>
</svg>