<?xml version='1.0' encoding='utf-8'?>
<svg xmlns="http://www.w3.org/2000/svg" height="1000" id="Calque_1" version="1.1" width="1718" xml:space="preserve">
<rect height="1000" style="fill:#006CB8;" width="1718" />
<g>
	<path d="M534.002,874c-91,0-146-21-203-53l54-109c30,23,79,46,139,46c82,0,133-44,133-104   c0-81-62-107-134-107h-73V430h74c69,0,112-34,112-88c0-45-34-84-108-84c-65,0-108,31-131,51l-49-104c61-40,129-63,212-63   c144,0,226,84,226,178c0,73-39,129-114,157v2c78,15,137,73,137,172C809.002,775,698.002,874,534.002,874z" style="fill:#FFFFFF;" />
	<path d="M1136,876c-157,0-246-94-246-201c0-94,53-149,121-184c-61-38-99-81-99-154c0-117,106-198,227-198   c124,0,227,61,227,182c0,66-34,117-100,157c65,31,122,87,122,180C1388,792,1281,876,1136,876z M1124,540c-46,18-92,64-92,119   c0,58,38,113,106,113c67,0,104-47,104-103C1242,605,1184,570,1124,540z M1141,241c-55,0-90,34-90,83c0,58,58,89,103,108   c37-17,77-58,77-102C1231,281,1199,241,1141,241z" style="fill:#FFFFFF;" />
</g>
</svg>