<?xml version='1.0' encoding='utf-8'?>
<svg xmlns="http://www.w3.org/2000/svg" height="1000" id="Calque_1" version="1.1" width="1718" xml:space="preserve">
<rect height="1000" style="fill:#8D653A;" width="1718" />
<g>
	<path d="M578.002,860h-161c0-93,25-153,87-268l172-320h-343V154h494v115   C672.002,538,578.002,749,578.002,860z" style="fill:#FFFFFF;" />
	<path d="M1094,874c-91,0-146-21-203-53l54-109c30,23,79,46,139,46c82,0,133-44,133-104c0-81-62-107-134-107   h-73V430h74c69,0,112-34,112-88c0-45-34-84-108-84c-65,0-108,31-131,51l-49-104c61-40,129-63,212-63c144,0,226,84,226,178   c0,73-39,129-114,157v2c78,15,137,73,137,172C1369,775,1258,874,1094,874z" style="fill:#FFFFFF;" />
</g>
</svg>