<?xml version='1.0' encoding='utf-8'?>
<svg xmlns="http://www.w3.org/2000/svg" height="1000" id="Calque_1" version="1.1" width="1718" xml:space="preserve">
<rect height="1000" style="fill:#000080;" width="1718" />
<g>
	<path d="M147.457,752v-65.1c12.6-57.399,69.3-107.8,135.1-165.199c32.9-28.7,68.6-63,68.6-110.6   c0-42.7-28-77-81.899-77c-43.4,0-73.5,31.5-85.4,44.8l-51.8-68.6c47.6-41.3,91.7-60.899,158.199-60.899   c86.8,0,168.699,49,168.699,149.799c0,84.7-53.899,123.2-113.399,177.099c-25.2,23.1-74.899,64.399-81.2,93.1h203.7V752H147.457z" style="fill:#FFFFFF;" />
	<path d="M698.355,764.6c-149.1,0-178.5-144.199-178.5-258.299c0-114.099,32.2-258.299,181.3-258.299   c149.099,0,178.499,144.2,178.499,258.299C879.653,620.4,847.454,764.6,698.355,764.6z M699.754,331.302   c-71.399,0-73.5,124.6-73.5,174.999c0,49.7,3.5,175.699,73.5,175.699s72.8-126.699,72.8-175.699   C772.554,454.501,770.455,331.302,699.754,331.302z" style="fill:#FFFFFF;" />
	<path d="M1089.652,763.2c-109.899,0-172.199-65.8-172.199-140.699c0-65.8,37.1-104.3,84.699-128.8   c-42.699-26.6-69.3-56.7-69.3-107.8c0-81.899,74.2-138.599,158.899-138.599c86.8,0,158.899,42.7,158.899,127.399   c0,46.2-23.8,81.899-70,109.899c45.5,21.7,85.4,60.9,85.4,126C1266.052,704.4,1191.151,763.2,1089.652,763.2z M1081.252,528.001   c-32.199,12.6-64.399,44.8-64.399,83.3c0,40.6,26.6,79.1,74.199,79.1c46.9,0,72.8-32.9,72.8-72.1   C1163.852,573.501,1123.252,549.001,1081.252,528.001z M1093.152,318.702c-38.5,0-63,23.8-63,58.1c0,40.6,40.6,62.3,72.1,75.6   c25.9-11.9,53.899-40.6,53.899-71.4C1156.151,346.702,1133.752,318.702,1093.152,318.702z" style="fill:#FFFFFF;" />
	<path d="M1422.852,764.6c-46.9,0-88.899-16.1-109.899-28.699l30.1-73.5c23.8,16.8,58.1,28,87.5,28   c25.899,0,57.399-8.4,57.399-37.8c0-25.9-28-33.6-47.6-41.3l-44.1-16.8c-53.2-20.3-74.9-54.6-74.9-98.7c0-70.7,59.5-126,147-126   c46.899,0,81.199,14.7,100.799,24.5l-30.1,72.1c-21.7-14-51.8-22.4-75.6-22.4c-32.899,0-51.8,13.3-51.8,35.7   c0,19.6,15.4,28.7,39.2,37.1l45.499,16.8c50.4,18.9,83.3,49.7,83.3,106.399C1579.65,712.8,1520.851,764.6,1422.852,764.6z" style="fill:#FFFFFF;" />
</g>
</svg>