<?xml version='1.0' encoding='utf-8'?>
<svg xmlns="http://www.w3.org/2000/svg" height="1000" id="Calque_1" version="1.1" width="1718" xml:space="preserve">
<rect height="1000" style="fill:#F59EB3;" width="1718" />
<g>
	<path d="M350.002,860v-93c18-82,99-154,193-236c47-41,98-90,98-158c0-61-40-110-117-110c-62,0-105,45-122,64l-74-98   c68-59,131-87,226-87c124,0,241,70,241,214c0,121-77,176-162,253c-36,33-107,92-116,133h291v118H350.002z" />
	<path d="M1136,876c-157,0-246-94-246-201c0-94,53-149,121-184c-61-38-99-81-99-154c0-117,106-198,227-198c124,0,227,61,227,182   c0,66-34,117-100,157c65,31,122,87,122,180C1388,792,1281,876,1136,876z M1124,540c-46,18-92,64-92,119c0,58,38,113,106,113   c67,0,104-47,104-103C1242,605,1184,570,1124,540z M1141,241c-55,0-90,34-90,83c0,58,58,89,103,108c37-17,77-58,77-102   C1231,281,1199,241,1141,241z" />
</g>
</svg>