<?xml version='1.0' encoding='utf-8'?>
<svg xmlns="http://www.w3.org/2000/svg" height="1000" id="Calque_1" version="1.1" width="1718" xml:space="preserve">
<rect height="1000" style="fill:#DFB03A;" width="1718" />
<g>
	<path d="M493.002,872c-40,0-76-5-105-12l22-120c19,8,55,17,95,17c97,0,170-71,179-213c-24,21-69,48-144,48c-115,0-209-77-209-209   c0-141,94-244,239-244c190,0,258,133,258,320C828.002,704,715.002,872,493.002,872z M575.002,250c-68,0-103,57-103,118   c0,66,43,113,111,113c43,0,78-17,92-39c8-12,8-39,8-60C683.002,315,645.002,250,575.002,250z" />
	<path d="M1153,876c-190,0-258-133-258-320c0-245,113-413,335-413c40,0,76,5,105,12l-22,120c-19-8-55-17-95-17c-97,0-170,71-179,213   c24-21,69-48,144-48c115,0,209,77,209,209C1392,773,1298,876,1153,876z M1140,534c-43,0-78,17-92,39c-8,12-8,39-8,60   c0,67,38,132,108,132c68,0,103-57,103-118C1251,581,1208,534,1140,534z" />
</g>
</svg>