<?xml version='1.0' encoding='utf-8'?>
<svg xmlns="http://www.w3.org/2000/svg" height="1000" id="Calque_1" version="1.1" width="1718" xml:space="preserve">
<rect height="1000" style="fill:#F68F4B;" width="1718" />
<g>
	<path d="M314.502,836.6c-81.899,0-131.399-18.899-182.699-47.699l48.6-98.1c27,20.7,71.1,41.399,125.099,41.399   c73.799,0,119.7-39.6,119.7-93.599c0-72.9-55.8-96.3-120.6-96.3h-65.7V437.002h66.6c62.1,0,100.799-30.6,100.799-79.199   c0-40.5-30.6-75.6-97.199-75.6c-58.5,0-97.199,27.9-117.899,45.9l-44.1-93.6c54.9-36,116.099-56.7,190.799-56.7   c129.599,0,203.398,75.6,203.398,160.199c0,65.699-35.1,116.099-102.6,141.299v1.8c70.2,13.5,123.3,65.699,123.3,154.799   C562,747.501,462.101,836.6,314.502,836.6z" />
	<path d="M824.8,836.6c-67.5,0-125.1-18-174.6-45.899l46.8-98.999C727.601,712.4,763.6,732.2,817.6,732.2   c49.5,0,111.599-27.899,111.599-102.599c0-45.9-30.601-108.899-147.599-109.799l-98.999-0.9L707.8,188.604h333.898v105.299H813.1   l-9,121.5l18,0.9c173.698,9,243.898,105.299,243.898,200.698C1065.998,738.501,969.698,836.6,824.8,836.6z" />
	<path d="M1375.598,838.4c-170.999,0-232.199-119.699-232.199-287.998c0-220.499,101.699-371.698,301.498-371.698   c36,0,68.399,4.5,94.5,10.8l-19.8,107.999c-17.101-7.2-49.5-15.3-85.5-15.3c-87.299,0-152.999,63.899-161.099,191.699   c21.6-18.9,62.1-43.2,129.599-43.2c103.5,0,188.099,69.299,188.099,188.099C1590.695,745.7,1506.097,838.4,1375.598,838.4z    M1363.897,530.602c-38.7,0-70.199,15.301-82.8,35.1c-7.2,10.801-7.2,35.101-7.2,54c0,60.3,34.2,118.8,97.2,118.8   c61.199,0,92.699-51.3,92.699-106.199C1463.797,572.902,1425.097,530.602,1363.897,530.602z" />
</g>
</svg>