<?xml version='1.0' encoding='utf-8'?>
<svg xmlns="http://www.w3.org/2000/svg" height="1000" id="Calque_1" version="1.1" width="1718" xml:space="preserve">
<rect height="1000" style="fill:#E0B03B;" width="1718" />
<g>
	<path d="M320.802,824V324.503c-21.6,17.1-85.499,50.399-108.899,62.1l-33.3,17.1l-43.2-97.199l38.7-18   c73.799-34.2,142.199-77.4,170.999-99.899h110.7V824H320.802z" />
	<path d="M1025.498,691.701V824H903.099V691.701H616.902V573.802l246.597-385.197h161.999v404.097h78.3v99H1025.498z    M903.099,300.204h-1.8c-2.7,10.8-20.7,49.5-45.899,89.099L725.8,592.701h177.298V300.204z" />
	<path d="M1328.798,824V324.503c-21.601,17.1-85.5,50.399-108.899,62.1l-33.3,17.1l-43.2-97.199l38.7-18   c73.8-34.2,142.199-77.4,170.999-99.899h110.699V824H1328.798z" />
</g>
</svg>