<?xml version='1.0' encoding='utf-8'?>
<svg xmlns="http://www.w3.org/2000/svg" height="1000" id="Calque_1" version="1.1" width="1718" xml:space="preserve">
<rect height="1000" style="fill:#9B993B;" width="1718" />
<g>
	<path d="M314.502,836.6c-81.899,0-131.399-18.899-182.699-47.699l48.6-98.1   c27,20.7,71.1,41.399,125.099,41.399c73.799,0,119.7-39.6,119.7-93.599c0-72.9-55.8-96.3-120.6-96.3h-65.7V437.002h66.6   c62.1,0,100.799-30.6,100.799-79.199c0-40.5-30.6-75.6-97.199-75.6c-58.5,0-97.199,27.9-117.899,45.9l-44.1-93.6   c54.9-36,116.099-56.7,190.799-56.7c129.599,0,203.398,75.6,203.398,160.199c0,65.699-35.1,116.099-102.6,141.299v1.8   c70.2,13.5,123.3,65.699,123.3,154.799C562,747.501,462.101,836.6,314.502,836.6z" style="fill:#FFFFFF;" />
	<path d="M857.2,840.2c-191.698,0-229.498-185.399-229.498-332.099c0-146.698,41.399-332.097,233.097-332.097   c191.699,0,229.499,185.399,229.499,332.097C1090.298,654.801,1048.898,840.2,857.2,840.2z M859,283.104   c-91.799,0-94.499,160.199-94.499,224.998c0,63.9,4.5,225.899,94.499,225.899c90,0,93.599-162.899,93.599-225.899   C952.599,441.502,949.898,283.104,859,283.104z" style="fill:#FFFFFF;" />
	<path d="M1322.498,836.6c-81.899,0-131.399-18.899-182.699-47.699l48.6-98.1   c27,20.7,71.1,41.399,125.1,41.399c73.799,0,119.699-39.6,119.699-93.599c0-72.9-55.8-96.3-120.6-96.3h-65.699V437.002h66.6   c62.1,0,100.799-30.6,100.799-79.199c0-40.5-30.6-75.6-97.199-75.6c-58.5,0-97.199,27.9-117.899,45.9l-44.1-93.6   c54.899-36,116.1-56.7,190.799-56.7c129.599,0,203.398,75.6,203.398,160.199c0,65.699-35.1,116.099-102.6,141.299v1.8   c70.2,13.5,123.3,65.699,123.3,154.799C1569.996,747.501,1470.097,836.6,1322.498,836.6z" style="fill:#FFFFFF;" />
</g>
</svg>