<?xml version='1.0' encoding='utf-8'?>
<svg xmlns="http://www.w3.org/2000/svg" height="1000" id="Calque_1" version="1.1" width="1718" xml:space="preserve">
<rect height="1000" style="fill:#B43C95;" width="1718" />
<g>
	<path d="M97.757,752v-65.1c12.6-57.399,69.3-107.8,135.1-165.199c32.9-28.7,68.6-63,68.6-110.6   c0-42.7-28-77-81.899-77c-43.4,0-73.5,31.5-85.4,44.8l-51.8-68.6c47.6-41.3,91.7-60.899,158.199-60.899   c86.8,0,168.699,49,168.699,149.799c0,84.7-53.899,123.2-113.399,177.099c-25.2,23.1-74.899,64.399-81.2,93.1h203.7V752H97.757z" style="fill:#FFFFFF;" />
	<path d="M648.655,764.6c-149.1,0-178.5-144.199-178.5-258.299c0-114.099,32.2-258.299,181.3-258.299   c149.099,0,178.499,144.2,178.499,258.299C829.954,620.4,797.754,764.6,648.655,764.6z M650.055,331.302   c-71.399,0-73.5,124.6-73.5,174.999c0,49.7,3.5,175.699,73.5,175.699s72.8-126.699,72.8-175.699   C722.854,454.501,720.755,331.302,650.055,331.302z" style="fill:#FFFFFF;" />
	<path d="M1039.953,763.2c-109.899,0-172.199-65.8-172.199-140.699c0-65.8,37.1-104.3,84.699-128.8   c-42.699-26.6-69.3-56.7-69.3-107.8c0-81.899,74.2-138.599,158.899-138.599c86.8,0,158.899,42.7,158.899,127.399   c0,46.2-23.8,81.899-70,109.899c45.5,21.7,85.4,60.9,85.4,126C1216.353,704.4,1141.452,763.2,1039.953,763.2z M1031.553,528.001   c-32.199,12.6-64.399,44.8-64.399,83.3c0,40.6,26.6,79.1,74.199,79.1c46.9,0,72.8-32.9,72.8-72.1   C1114.152,573.501,1073.553,549.001,1031.553,528.001z M1043.453,318.702c-38.5,0-63,23.8-63,58.1c0,40.6,40.6,62.3,72.1,75.6   c25.9-11.9,53.899-40.6,53.899-71.4C1106.452,346.702,1084.053,318.702,1043.453,318.702z" style="fill:#FFFFFF;" />
	<path d="M1462.752,761.1c-28,0-60.9-11.199-79.8-28.699V752h-95.199V234.002h98.699v195.299   c25.2-36.4,53.899-61.6,101.499-61.6c98,0,138.6,102.2,138.6,192.5C1626.551,644.2,1582.451,761.1,1462.752,761.1z    M1450.852,452.401c-19.6,0-35,8.4-45.5,18.9c-16.8,16.1-18.899,26.6-18.899,48.299v122.5c0,25.899,15.399,49,60.199,49   c63,0,77-65.8,77-116.899C1523.651,523.801,1513.151,452.401,1450.852,452.401z" style="fill:#FFFFFF;" />
</g>
</svg>