<?xml version='1.0' encoding='utf-8'?>
<svg xmlns="http://www.w3.org/2000/svg" height="1000" id="Calque_1" version="1.1" width="1718" xml:space="preserve">
<rect height="1000" style="fill:#BB4B9C;" width="1718" />
<g>
	<path d="M541.002,874c-75,0-139-20-194-51l52-110c34,23,74,45,134,45c55,0,124-31,124-114   c0-51-34-121-164-122l-110-1l28-367h371v117h-254l-10,135l20,1c193,10,271,117,271,223C809.002,765,702.002,874,541.002,874z" style="fill:#FFFFFF;" />
	<path d="M1153,876c-190,0-258-133-258-320c0-245,113-413,335-413c40,0,76,5,105,12l-22,120   c-19-8-55-17-95-17c-97,0-170,71-179,213c24-21,69-48,144-48c115,0,209,77,209,209C1392,773,1298,876,1153,876z M1140,534   c-43,0-78,17-92,39c-8,12-8,39-8,60c0,67,38,132,108,132c68,0,103-57,103-118C1251,581,1208,534,1140,534z" style="fill:#FFFFFF;" />
</g>
</svg>