<?xml version='1.0' encoding='utf-8'?>
<svg xmlns="http://www.w3.org/2000/svg" height="1000" id="Calque_1" version="1.1" width="1718" xml:space="preserve">
<rect height="1000" style="fill:#F68F4B;" width="1718" />
<g>
	<path d="M578.002,860h-161c0-93,25-153,87-268l172-320h-343V154h494v115C672.002,538,578.002,749,578.002,860z" />
	<path d="M1137,878c-213,0-255-206-255-369s46-369,259-369s255,206,255,369S1350,878,1137,878z M1139,259c-102,0-105,178-105,250   c0,71,5,251,105,251s104-181,104-251C1243,435,1240,259,1139,259z" />
</g>
</svg>