<?xml version='1.0' encoding='utf-8'?>
<svg xmlns="http://www.w3.org/2000/svg" height="1000" id="Calque_1" version="1.1" width="1718" xml:space="preserve">
<rect height="1000" style="fill:#008B5A;" width="1718" />
<g>
	<path d="M593.002,876c-190,0-258-133-258-320c0-245,113-413,335-413c40,0,76,5,105,12l-22,120   c-19-8-55-17-95-17c-97,0-170,71-179,213c24-21,69-48,144-48c115,0,209,77,209,209C832.002,773,738.002,876,593.002,876z    M580.002,534c-43,0-78,17-92,39c-8,12-8,39-8,60c0,67,38,132,108,132c68,0,103-57,103-118C691.002,581,648.002,534,580.002,534z" style="fill:#FFFFFF;" />
	<path d="M1101,860V305c-24,19-95,56-121,69l-37,19l-48-108l43-20c82-38,158-86,190-111h123v706H1101z" style="fill:#FFFFFF;" />
</g>
</svg>