<?xml version='1.0' encoding='utf-8'?>
<svg xmlns="http://www.w3.org/2000/svg" height="1000" id="Calque_1" version="1.1" width="1718" xml:space="preserve">
<rect height="1000" style="fill:#8D653A;" width="1718" />
<g>
	<path d="M320.802,824V324.503c-21.6,17.1-85.499,50.399-108.899,62.1l-33.3,17.1l-43.2-97.199l38.7-18   c73.799-34.2,142.199-77.4,170.999-99.899h110.7V824H320.802z" style="fill:#FFFFFF;" />
	<path d="M781.6,834.8c-36,0-68.399-4.5-94.499-10.8l19.8-107.999c17.1,7.2,49.5,15.3,85.499,15.3   c87.299,0,152.999-63.899,161.099-191.699c-21.601,18.9-62.1,43.2-129.599,43.2c-103.499,0-188.099-69.3-188.099-188.099   c0-126.899,84.6-219.599,215.099-219.599c170.999,0,232.198,119.699,232.198,287.998C1083.098,683.601,981.398,834.8,781.6,834.8z    M855.4,275.004c-61.199,0-92.699,51.299-92.699,106.199c0,59.399,38.699,101.699,99.899,101.699c38.699,0,70.199-15.3,82.799-35.1   c7.2-10.8,7.2-35.1,7.2-54C952.599,333.503,918.398,275.004,855.4,275.004z" style="fill:#FFFFFF;" />
	<path d="M1361.197,840.2c-191.698,0-229.498-185.399-229.498-332.099   c0-146.698,41.399-332.097,233.098-332.097c191.699,0,229.499,185.399,229.499,332.097   C1594.296,654.801,1552.896,840.2,1361.197,840.2z M1362.997,283.104c-91.799,0-94.499,160.199-94.499,224.998   c0,63.9,4.5,225.899,94.499,225.899c90,0,93.6-162.899,93.6-225.899C1456.597,441.502,1453.896,283.104,1362.997,283.104z" style="fill:#FFFFFF;" />
</g>
</svg>