<?xml version='1.0' encoding='utf-8'?>
<svg xmlns="http://www.w3.org/2000/svg" height="1000" id="Calque_1" version="1.1" width="1718" xml:space="preserve">
<rect height="1000" style="fill:#B43C95;" width="1718" />
<g>
	<path d="M113.154,752v-65.1c12.6-57.399,69.3-107.8,135.1-165.199c32.9-28.7,68.6-63,68.6-110.6   c0-42.7-28-77-81.899-77c-43.4,0-73.5,31.5-85.4,44.8l-51.8-68.6c47.6-41.3,91.7-60.899,158.199-60.899   c86.8,0,168.699,49,168.699,149.799c0,84.7-53.899,123.2-113.399,177.099c-25.2,23.1-74.899,64.399-81.2,93.1h203.7V752H113.154z" style="fill:#FFFFFF;" />
	<path d="M664.052,764.6c-149.1,0-178.5-144.199-178.5-258.299c0-114.099,32.2-258.299,181.3-258.299   c149.099,0,178.499,144.2,178.499,258.299C845.351,620.4,813.151,764.6,664.052,764.6z M665.452,331.302   c-71.399,0-73.5,124.6-73.5,174.999c0,49.7,3.5,175.699,73.5,175.699s72.8-126.699,72.8-175.699   C738.251,454.501,736.152,331.302,665.452,331.302z" style="fill:#FFFFFF;" />
	<path d="M1055.351,763.2c-109.899,0-172.199-65.8-172.199-140.699c0-65.8,37.1-104.3,84.699-128.8   c-42.699-26.6-69.3-56.7-69.3-107.8c0-81.899,74.2-138.599,158.899-138.599c86.8,0,158.899,42.7,158.899,127.399   c0,46.2-23.8,81.899-70,109.899c45.5,21.7,85.4,60.9,85.4,126C1231.75,704.4,1156.85,763.2,1055.351,763.2z M1046.95,528.001   c-32.199,12.6-64.399,44.8-64.399,83.3c0,40.6,26.6,79.1,74.199,79.1c46.9,0,72.8-32.9,72.8-72.1   C1129.55,573.501,1088.95,549.001,1046.95,528.001z M1058.851,318.702c-38.5,0-63,23.8-63,58.1c0,40.6,40.6,62.3,72.1,75.6   c25.9-11.9,53.899-40.6,53.899-71.4C1121.85,346.702,1099.45,318.702,1058.851,318.702z" style="fill:#FFFFFF;" />
	<path d="M1557.249,759c-35,0-52.5-21.7-58.1-51.1c-30.8,36.399-59.5,56-110.6,56   c-65.8,0-110.6-49-110.6-112.7c0-101.499,106.399-121.1,188.999-121.1c15.4,0,24.5-0.699,24.5-13.3v-25.899   c0-28.7-21.7-47.6-68.6-47.6c-43.4,0-76.3,20.3-92.399,34.3l-32.2-67.899c44.1-28,88.899-39.2,149.1-39.2   c52.5,0,137.199,18.9,137.199,126.7V665.2c0,13.3,1.4,24.5,13.3,24.5c4.2,0,11.9-2.1,16.1-3.5l5.601,63.7   C1604.849,753.4,1580.349,759,1557.249,759z M1490.749,590.301c-8.399-0.7-18.899,0-29.399,0c-34.3,0-86.1,8.399-86.1,53.199   c0,27.301,19.6,46.9,46.899,46.9c21.7,0,39.899-7,52.5-20.3c11.2-11.9,16.1-25.9,16.1-44.1V590.301z" style="fill:#FFFFFF;" />
</g>
</svg>