<?xml version='1.0' encoding='utf-8'?>
<svg xmlns="http://www.w3.org/2000/svg" height="1000" id="Calque_1" version="1.1" width="1718" xml:space="preserve">
<rect height="1000" style="fill:#652C90;" width="1718" />
<g>
	<path d="M578.002,860h-161c0-93,25-153,87-268l172-320h-343V154h494v115   C672.002,538,578.002,749,578.002,860z" style="fill:#FFFFFF;" />
	<path d="M1153,876c-190,0-258-133-258-320c0-245,113-413,335-413c40,0,76,5,105,12l-22,120   c-19-8-55-17-95-17c-97,0-170,71-179,213c24-21,69-48,144-48c115,0,209,77,209,209C1392,773,1298,876,1153,876z M1140,534   c-43,0-78,17-92,39c-8,12-8,39-8,60c0,67,38,132,108,132c68,0,103-57,103-118C1251,581,1208,534,1140,534z" style="fill:#FFFFFF;" />
</g>
</svg>