<?xml version='1.0' encoding='utf-8'?>
<svg xmlns="http://www.w3.org/2000/svg" height="1000" id="Calque_1" version="1.1" width="1718" xml:space="preserve">
<rect height="1000" style="fill:#87D3DF;" width="1718" />
<g>
	<path d="M350.002,860v-93c18-82,99-154,193-236c47-41,98-90,98-158c0-61-40-110-117-110c-62,0-105,45-122,64l-74-98   c68-59,131-87,226-87c124,0,241,70,241,214c0,121-77,176-162,253c-36,33-107,92-116,133h291v118H350.002z" />
	<path d="M1053,872c-40,0-76-5-105-12l22-120c19,8,55,17,95,17c97,0,170-71,179-213c-24,21-69,48-144,48c-115,0-209-77-209-209   c0-141,94-244,239-244c190,0,258,133,258,320C1388,704,1275,872,1053,872z M1135,250c-68,0-103,57-103,118c0,66,43,113,111,113   c43,0,78-17,92-39c8-12,8-39,8-60C1243,315,1205,250,1135,250z" />
</g>
</svg>