<?xml version='1.0' encoding='utf-8'?>
<svg xmlns="http://www.w3.org/2000/svg" height="1000" id="Calque_1" version="1.1" width="1718" xml:space="preserve">
<rect height="1000" style="fill:#CEC92B;" width="1718" />
<g>
	<path d="M314.502,836.6c-81.899,0-131.399-18.899-182.699-47.699l48.6-98.1c27,20.7,71.1,41.399,125.099,41.399   c73.799,0,119.7-39.6,119.7-93.599c0-72.9-55.8-96.3-120.6-96.3h-65.7V437.002h66.6c62.1,0,100.799-30.6,100.799-79.199   c0-40.5-30.6-75.6-97.199-75.6c-58.5,0-97.199,27.9-117.899,45.9l-44.1-93.6c54.9-36,116.099-56.7,190.799-56.7   c129.599,0,203.398,75.6,203.398,160.199c0,65.699-35.1,116.099-102.6,141.299v1.8c70.2,13.5,123.3,65.699,123.3,154.799   C562,747.501,462.101,836.6,314.502,836.6z" />
	<path d="M652.901,824v-83.699c16.2-73.8,89.1-138.6,173.699-212.398c42.299-36.9,88.199-81,88.199-142.199c0-54.9-36-99-105.298-99   c-55.8,0-94.5,40.5-109.8,57.6l-66.6-88.199c61.2-53.1,117.899-78.3,203.398-78.3c111.599,0,216.898,63,216.898,192.599   c0,108.899-69.299,158.398-145.799,227.698c-32.399,29.7-96.298,82.8-104.399,119.699h261.898V824H652.901z" />
	<path d="M1322.498,836.6c-81.899,0-131.399-18.899-182.699-47.699l48.6-98.1c27,20.7,71.1,41.399,125.1,41.399   c73.799,0,119.699-39.6,119.699-93.599c0-72.9-55.8-96.3-120.6-96.3h-65.699V437.002h66.6c62.1,0,100.799-30.6,100.799-79.199   c0-40.5-30.6-75.6-97.199-75.6c-58.5,0-97.199,27.9-117.899,45.9l-44.1-93.6c54.899-36,116.1-56.7,190.799-56.7   c129.599,0,203.398,75.6,203.398,160.199c0,65.699-35.1,116.099-102.6,141.299v1.8c70.2,13.5,123.3,65.699,123.3,154.799   C1569.996,747.501,1470.097,836.6,1322.498,836.6z" />
</g>
</svg>