<?xml version='1.0' encoding='utf-8'?>
<svg xmlns="http://www.w3.org/2000/svg" height="1000" id="Calque_1" version="1.1" width="1718" xml:space="preserve">
<rect height="1000" style="fill:#006CB8;" width="1718" />
<g>
	<path d="M521.5,691.701V824H399.101V691.701H112.903V573.802l246.598-385.197H521.5v404.097h78.3v99H521.5z    M399.101,300.204h-1.8c-2.7,10.8-20.7,49.5-45.899,89.099L221.803,592.701h177.298V300.204z" style="fill:#FFFFFF;" />
	<path d="M858.1,824H713.201c0-83.699,22.5-137.699,78.3-241.198l154.798-287.998H637.601V188.604h444.597   v103.499C942.698,534.202,858.1,724.101,858.1,824z" style="fill:#FFFFFF;" />
	<path d="M1328.798,824V324.503c-21.601,17.1-85.5,50.399-108.899,62.1l-33.3,17.1l-43.2-97.199l38.7-18   c73.8-34.2,142.199-77.4,170.999-99.899h110.699V824H1328.798z" style="fill:#FFFFFF;" />
</g>
</svg>