<?xml version='1.0' encoding='utf-8'?>
<svg xmlns="http://www.w3.org/2000/svg" height="1000" id="Calque_1" version="1.1" width="1718" xml:space="preserve">
<rect height="1000" style="fill:#652C90;" width="1718" />
<g>
	<path d="M576.002,876c-157,0-246-94-246-201c0-94,53-149,121-184c-61-38-99-81-99-154c0-117,106-198,227-198   c124,0,227,61,227,182c0,66-34,117-100,157c65,31,122,87,122,180C828.002,792,721.002,876,576.002,876z M564.002,540   c-46,18-92,64-92,119c0,58,38,113,106,113c67,0,104-47,104-103C682.002,605,624.002,570,564.002,540z M581.002,241   c-55,0-90,34-90,83c0,58,58,89,103,108c37-17,77-58,77-102C671.002,281,639.002,241,581.002,241z" style="fill:#FFFFFF;" />
	<path d="M1138,860H977c0-93,25-153,87-268l172-320H893V154h494v115C1232,538,1138,749,1138,860z" style="fill:#FFFFFF;" />
</g>
</svg>