<?xml version='1.0' encoding='utf-8'?>
<svg xmlns="http://www.w3.org/2000/svg" height="1000" id="Calque_1" version="1.1" width="1718" xml:space="preserve">
<rect height="1000" style="fill:#FFCD01;" width="1718" />
<g>
	<path d="M593.002,876c-190,0-258-133-258-320c0-245,113-413,335-413c40,0,76,5,105,12l-22,120c-19-8-55-17-95-17   c-97,0-170,71-179,213c24-21,69-48,144-48c115,0,209,77,209,209C832.002,773,738.002,876,593.002,876z M580.002,534   c-43,0-78,17-92,39c-8,12-8,39-8,60c0,67,38,132,108,132c68,0,103-57,103-118C691.002,581,648.002,534,580.002,534z" />
	<path d="M1136,876c-157,0-246-94-246-201c0-94,53-149,121-184c-61-38-99-81-99-154c0-117,106-198,227-198c124,0,227,61,227,182   c0,66-34,117-100,157c65,31,122,87,122,180C1388,792,1281,876,1136,876z M1124,540c-46,18-92,64-92,119c0,58,38,113,106,113   c67,0,104-47,104-103C1242,605,1184,570,1124,540z M1141,241c-55,0-90,34-90,83c0,58,58,89,103,108c37-17,77-58,77-102   C1231,281,1199,241,1141,241z" />
</g>
</svg>