<?xml version='1.0' encoding='utf-8'?>
<svg xmlns="http://www.w3.org/2000/svg" height="1000" id="Calque_1" version="1.1" width="1718" xml:space="preserve">
<rect height="1000" style="fill:#8D653A;" width="1718" />
<g>
	<path d="M320.802,824V324.503c-21.6,17.1-85.499,50.399-108.899,62.1l-33.3,17.1l-43.2-97.199l38.7-18   c73.799-34.2,142.199-77.4,170.999-99.899h110.7V824H320.802z" style="fill:#FFFFFF;" />
	<path d="M652.901,824v-83.699c16.2-73.8,89.1-138.6,173.699-212.398c42.299-36.9,88.199-81,88.199-142.199   c0-54.9-36-99-105.298-99c-55.8,0-94.5,40.5-109.8,57.6l-66.6-88.199c61.2-53.1,117.899-78.3,203.398-78.3   c111.599,0,216.898,63,216.898,192.599c0,108.899-69.299,158.398-145.799,227.698c-32.399,29.7-96.298,82.8-104.399,119.699   h261.898V824H652.901z" style="fill:#FFFFFF;" />
	<path d="M1360.297,838.4c-141.299,0-221.398-84.6-221.398-180.899c0-84.599,47.7-134.099,108.899-165.599   c-54.899-34.2-89.1-72.899-89.1-138.599c0-105.299,95.399-178.199,204.299-178.199c111.6,0,204.299,54.899,204.299,163.799   c0,59.399-30.6,105.299-89.999,141.299c58.499,27.899,109.799,78.3,109.799,161.999   C1587.096,762.801,1490.797,838.4,1360.297,838.4z M1349.497,536.002c-41.399,16.199-82.799,57.6-82.799,107.1   c0,52.199,34.199,101.699,95.399,101.699c60.299,0,93.599-42.3,93.599-92.699C1455.696,594.502,1403.497,563.002,1349.497,536.002z    M1364.797,266.904c-49.499,0-80.999,30.6-80.999,74.7c0,52.199,52.199,80.099,92.699,97.199c33.3-15.3,69.3-52.2,69.3-91.799   C1445.797,302.903,1416.997,266.904,1364.797,266.904z" style="fill:#FFFFFF;" />
</g>
</svg>