<?xml version='1.0' encoding='utf-8'?>
<svg xmlns="http://www.w3.org/2000/svg" height="1000" id="Calque_1" version="1.1" width="1718" xml:space="preserve">
<rect height="1000" style="fill:#F59EB3;" width="1718" />
<g>
	<path d="M148.903,824v-83.699c16.2-73.8,89.099-138.6,173.699-212.398c42.3-36.9,88.199-81,88.199-142.199c0-54.9-36-99-105.299-99   c-55.799,0-94.5,40.5-109.799,57.6l-66.6-88.199c61.2-53.1,117.899-78.3,203.399-78.3c111.599,0,216.898,63,216.898,192.599   c0,108.899-69.299,158.398-145.799,227.698c-32.399,29.7-96.299,82.8-104.399,119.699H561.1V824H148.903z" />
	<path d="M818.5,836.6c-81.899,0-131.399-18.899-182.699-47.699l48.6-98.1c27,20.7,71.1,41.399,125.1,41.399   c73.798,0,119.699-39.6,119.699-93.599c0-72.9-55.8-96.3-120.599-96.3h-65.699V437.002h66.6c62.099,0,100.798-30.6,100.798-79.199   c0-40.5-30.6-75.6-97.199-75.6c-58.5,0-97.199,27.9-117.899,45.9l-44.1-93.6c54.899-36,116.1-56.7,190.799-56.7   c129.598,0,203.398,75.6,203.398,160.199c0,65.699-35.1,116.099-102.6,141.299v1.8c70.2,13.5,123.3,65.699,123.3,154.799   C1065.998,747.501,966.099,836.6,818.5,836.6z" />
	<path d="M1360.297,838.4c-141.299,0-221.398-84.6-221.398-180.899c0-84.599,47.7-134.099,108.899-165.599   c-54.899-34.2-89.1-72.899-89.1-138.599c0-105.299,95.399-178.199,204.299-178.199c111.6,0,204.299,54.899,204.299,163.799   c0,59.399-30.6,105.299-89.999,141.299c58.499,27.899,109.799,78.3,109.799,161.999   C1587.096,762.801,1490.797,838.4,1360.297,838.4z M1349.497,536.002c-41.399,16.199-82.799,57.6-82.799,107.1   c0,52.199,34.199,101.699,95.399,101.699c60.299,0,93.599-42.3,93.599-92.699C1455.696,594.502,1403.497,563.002,1349.497,536.002z    M1364.797,266.904c-49.499,0-80.999,30.6-80.999,74.7c0,52.199,52.199,80.099,92.699,97.199c33.3-15.3,69.3-52.2,69.3-91.799   C1445.797,302.903,1416.997,266.904,1364.797,266.904z" />
</g>
</svg>