<?xml version='1.0' encoding='utf-8'?>
<svg xmlns="http://www.w3.org/2000/svg" height="1000" id="Calque_1" version="1.1" width="1718" xml:space="preserve">
<rect height="1000" style="fill:#BB4B9C;" width="1718" />
<g>
	<path d="M320.802,824V324.503c-21.6,17.1-85.499,50.399-108.899,62.1l-33.3,17.1l-43.2-97.199l38.7-18   c73.799-34.2,142.199-77.4,170.999-99.899h110.7V824H320.802z" style="fill:#FFFFFF;" />
	<path d="M1025.498,691.701V824H903.099V691.701H616.902V573.802l246.597-385.197h161.999v404.097h78.3v99   H1025.498z M903.099,300.204h-1.8c-2.7,10.8-20.7,49.5-45.899,89.099L725.8,592.701h177.298V300.204z" style="fill:#FFFFFF;" />
	<path d="M1328.798,836.6c-67.5,0-125.1-18-174.6-45.899l46.8-98.999c30.601,20.699,66.6,40.499,120.6,40.499   c49.5,0,111.6-27.899,111.6-102.599c0-45.9-30.601-108.899-147.6-109.799l-98.999-0.9l25.199-330.298h333.898v105.299h-228.599   l-9,121.5l18,0.9c173.698,9,243.898,105.299,243.898,200.698C1569.996,738.501,1473.696,836.6,1328.798,836.6z" style="fill:#FFFFFF;" />
</g>
</svg>