<?xml version='1.0' encoding='utf-8'?>
<svg xmlns="http://www.w3.org/2000/svg" height="1000" id="Calque_1" version="1.1" width="1718" xml:space="preserve">
<rect height="1000" style="fill:#F68F4B;" width="1718" />
<g>
	<path d="M320.802,824V324.503c-21.6,17.1-85.499,50.399-108.899,62.1l-33.3,17.1l-43.2-97.199l38.7-18   c73.799-34.2,142.199-77.4,170.999-99.899h110.7V824H320.802z" />
	<path d="M781.6,834.8c-36,0-68.399-4.5-94.499-10.8l19.8-107.999c17.1,7.2,49.5,15.3,85.499,15.3   c87.299,0,152.999-63.899,161.099-191.699c-21.601,18.9-62.1,43.2-129.599,43.2c-103.499,0-188.099-69.3-188.099-188.099   c0-126.899,84.6-219.599,215.099-219.599c170.999,0,232.198,119.699,232.198,287.998C1083.098,683.601,981.398,834.8,781.6,834.8z    M855.4,275.004c-61.199,0-92.699,51.299-92.699,106.199c0,59.399,38.699,101.699,99.899,101.699c38.699,0,70.199-15.3,82.799-35.1   c7.2-10.8,7.2-35.1,7.2-54C952.599,333.503,918.398,275.004,855.4,275.004z" />
	<path d="M1529.496,691.701V824h-122.399V691.701h-286.197V573.802l246.598-385.197h161.999v404.097h78.3v99H1529.496z    M1407.097,300.204h-1.8c-2.7,10.8-20.7,49.5-45.899,89.099l-129.6,203.398h177.299V300.204z" />
</g>
</svg>