<?xml version='1.0' encoding='utf-8'?>
<svg xmlns="http://www.w3.org/2000/svg" height="1000" id="Calque_1" version="1.1" width="1718" xml:space="preserve">
<rect height="1000" style="fill:#008B5A;" width="1718" />
<g>
	<path d="M320.802,824V324.503c-21.6,17.1-85.499,50.399-108.899,62.1l-33.3,17.1l-43.2-97.199l38.7-18   c73.799-34.2,142.199-77.4,170.999-99.899h110.7V824H320.802z" style="fill:#FFFFFF;" />
	<path d="M858.1,824H713.201c0-83.699,22.5-137.699,78.3-241.198l154.798-287.998H637.601V188.604h444.597   v103.499C942.698,534.202,858.1,724.101,858.1,824z" style="fill:#FFFFFF;" />
	<path d="M1529.496,691.701V824h-122.399V691.701h-286.197V573.802l246.598-385.197h161.999v404.097h78.3v99   H1529.496z M1407.097,300.204h-1.8c-2.7,10.8-20.7,49.5-45.899,89.099l-129.6,203.398h177.299V300.204z" style="fill:#FFFFFF;" />
</g>
</svg>