<?xml version='1.0' encoding='utf-8'?>
<svg xmlns="http://www.w3.org/2000/svg" height="1000" id="Calque_1" version="1.1" width="1718" xml:space="preserve">
<rect height="1000" style="fill:#CEC92A;" width="1718" />
<g>
	<path d="M320.802,824V324.503c-21.6,17.1-85.499,50.399-108.899,62.1l-33.3,17.1l-43.2-97.199l38.7-18   c73.799-34.2,142.199-77.4,170.999-99.899h110.7V824H320.802z" />
	<path d="M857.2,840.2c-191.698,0-229.498-185.399-229.498-332.099c0-146.698,41.399-332.097,233.097-332.097   c191.699,0,229.499,185.399,229.499,332.097C1090.298,654.801,1048.898,840.2,857.2,840.2z M859,283.104   c-91.799,0-94.499,160.199-94.499,224.998c0,63.9,4.5,225.899,94.499,225.899c90,0,93.599-162.899,93.599-225.899   C952.599,441.502,949.898,283.104,859,283.104z" />
	<path d="M1285.598,834.8c-36,0-68.399-4.5-94.499-10.8l19.8-107.999c17.1,7.2,49.5,15.3,85.499,15.3   c87.3,0,152.999-63.899,161.1-191.699c-21.601,18.9-62.1,43.2-129.6,43.2c-103.499,0-188.099-69.3-188.099-188.099   c0-126.899,84.6-219.599,215.099-219.599c170.999,0,232.198,119.699,232.198,287.998   C1587.096,683.601,1485.396,834.8,1285.598,834.8z M1359.397,275.004c-61.199,0-92.699,51.299-92.699,106.199   c0,59.399,38.699,101.699,99.899,101.699c38.699,0,70.199-15.3,82.799-35.1c7.2-10.8,7.2-35.1,7.2-54   C1456.597,333.503,1422.396,275.004,1359.397,275.004z" />
</g>
</svg>