<?xml version='1.0' encoding='utf-8'?>
<svg xmlns="http://www.w3.org/2000/svg" height="1000" id="Calque_1" version="1.1" width="1718" xml:space="preserve">
<rect height="1000" style="fill:#77C695;" width="1718" />
<g>
	<path d="M320.802,824V324.503c-21.6,17.1-85.499,50.399-108.899,62.1l-33.3,17.1l-43.2-97.199l38.7-18   c73.799-34.2,142.199-77.4,170.999-99.899h110.7V824H320.802z" />
	<path d="M858.1,824H713.201c0-83.699,22.5-137.699,78.3-241.198l154.798-287.998H637.601V188.604h444.597v103.499   C942.698,534.202,858.1,724.101,858.1,824z" />
	<path d="M1362.098,824h-144.899c0-83.699,22.5-137.699,78.3-241.198l154.799-287.998h-308.698V188.604h444.598v103.499   C1446.696,534.202,1362.098,724.101,1362.098,824z" />
</g>
</svg>