<?xml version='1.0' encoding='utf-8'?>
<svg xmlns="http://www.w3.org/2000/svg" height="1000" id="Calque_1" version="1.1" width="1718" xml:space="preserve">
<rect height="1000" style="fill:#ED1B2A;" width="1718" />
<g>
	<path d="M578.002,860h-161c0-93,25-153,87-268l172-320h-343V154h494v115   C672.002,538,578.002,749,578.002,860z" style="fill:#FFFFFF;" />
	<path d="M910,860v-93c18-82,99-154,193-236c47-41,98-90,98-158c0-61-40-110-117-110c-62,0-105,45-122,64   l-74-98c68-59,131-87,226-87c124,0,241,70,241,214c0,121-77,176-162,253c-36,33-107,92-116,133h291v118H910z" style="fill:#FFFFFF;" />
</g>
</svg>