<?xml version='1.0' encoding='utf-8'?>
<svg xmlns="http://www.w3.org/2000/svg" height="1000" id="Calque_1" version="1.1" width="1718" xml:space="preserve">
<rect height="1000" style="fill:#006CB8;" width="1718" />
<g>
	<path d="M521.5,691.701V824H399.101V691.701H112.903V573.802l246.598-385.197H521.5v404.097h78.3v99H521.5z    M399.101,300.204h-1.8c-2.7,10.8-20.7,49.5-45.899,89.099L221.803,592.701h177.298V300.204z" style="fill:#FFFFFF;" />
	<path d="M856.299,838.4c-141.299,0-221.398-84.6-221.398-180.899c0-84.599,47.7-134.099,108.899-165.599   c-54.899-34.2-89.1-72.899-89.1-138.599c0-105.299,95.399-178.199,204.299-178.199c111.599,0,204.298,54.899,204.298,163.799   c0,59.399-30.6,105.299-89.999,141.299c58.499,27.899,109.799,78.3,109.799,161.999C1083.098,762.801,986.799,838.4,856.299,838.4z    M845.5,536.002c-41.399,16.199-82.799,57.6-82.799,107.1c0,52.199,34.199,101.699,95.399,101.699   c60.298,0,93.598-42.3,93.598-92.699C951.698,594.502,899.499,563.002,845.5,536.002z M860.799,266.904   c-49.499,0-80.999,30.6-80.999,74.7c0,52.199,52.199,80.099,92.699,97.199c33.3-15.3,69.3-52.2,69.3-91.799   C941.799,302.903,912.999,266.904,860.799,266.904z" style="fill:#FFFFFF;" />
	<path d="M1360.297,838.4c-141.299,0-221.398-84.6-221.398-180.899c0-84.599,47.7-134.099,108.899-165.599   c-54.899-34.2-89.1-72.899-89.1-138.599c0-105.299,95.399-178.199,204.299-178.199c111.6,0,204.299,54.899,204.299,163.799   c0,59.399-30.6,105.299-89.999,141.299c58.499,27.899,109.799,78.3,109.799,161.999   C1587.096,762.801,1490.797,838.4,1360.297,838.4z M1349.497,536.002c-41.399,16.199-82.799,57.6-82.799,107.1   c0,52.199,34.199,101.699,95.399,101.699c60.299,0,93.599-42.3,93.599-92.699C1455.696,594.502,1403.497,563.002,1349.497,536.002z    M1364.797,266.904c-49.499,0-80.999,30.6-80.999,74.7c0,52.199,52.199,80.099,92.699,97.199c33.3-15.3,69.3-52.2,69.3-91.799   C1445.797,302.903,1416.997,266.904,1364.797,266.904z" style="fill:#FFFFFF;" />
</g>
</svg>