<?xml version='1.0' encoding='utf-8'?>
<svg xmlns="http://www.w3.org/2000/svg" height="1000" id="Calque_1" version="1.1" width="1718" xml:space="preserve">
<rect height="1000" style="fill:#BB4B9C;" width="1718" />
<g>
	<path d="M314.502,836.6c-81.899,0-131.399-18.899-182.699-47.699l48.6-98.1   c27,20.7,71.1,41.399,125.099,41.399c73.799,0,119.7-39.6,119.7-93.599c0-72.9-55.8-96.3-120.6-96.3h-65.7V437.002h66.6   c62.1,0,100.799-30.6,100.799-79.199c0-40.5-30.6-75.6-97.199-75.6c-58.5,0-97.199,27.9-117.899,45.9l-44.1-93.6   c54.9-36,116.099-56.7,190.799-56.7c129.599,0,203.398,75.6,203.398,160.199c0,65.699-35.1,116.099-102.6,141.299v1.8   c70.2,13.5,123.3,65.699,123.3,154.799C562,747.501,462.101,836.6,314.502,836.6z" style="fill:#FFFFFF;" />
	<path d="M1025.498,691.701V824H903.099V691.701H616.902V573.802l246.597-385.197h161.999v404.097h78.3v99   H1025.498z M903.099,300.204h-1.8c-2.7,10.8-20.7,49.5-45.899,89.099L725.8,592.701h177.298V300.204z" style="fill:#FFFFFF;" />
	<path d="M1362.098,824h-144.899c0-83.699,22.5-137.699,78.3-241.198l154.799-287.998h-308.698V188.604   h444.598v103.499C1446.696,534.202,1362.098,724.101,1362.098,824z" style="fill:#FFFFFF;" />
</g>
</svg>