<?xml version='1.0' encoding='utf-8'?>
<svg xmlns="http://www.w3.org/2000/svg" height="1000" id="Calque_1" version="1.1" width="1718" xml:space="preserve">
<rect height="1000" style="fill:#652C90;" width="1718" />
<g>
	<path d="M534.002,874c-91,0-146-21-203-53l54-109c30,23,79,46,139,46c82,0,133-44,133-104   c0-81-62-107-134-107h-73V430h74c69,0,112-34,112-88c0-45-34-84-108-84c-65,0-108,31-131,51l-49-104c61-40,129-63,212-63   c144,0,226,84,226,178c0,73-39,129-114,157v2c78,15,137,73,137,172C809.002,775,698.002,874,534.002,874z" style="fill:#FFFFFF;" />
	<path d="M1137,878c-213,0-255-206-255-369s46-369,259-369s255,206,255,369S1350,878,1137,878z M1139,259   c-102,0-105,178-105,250c0,71,5,251,105,251s104-181,104-251C1243,435,1240,259,1139,259z" style="fill:#FFFFFF;" />
</g>
</svg>