<?xml version='1.0' encoding='utf-8'?>
<svg xmlns="http://www.w3.org/2000/svg" height="1000" id="Calque_1" version="1.1" width="1718" xml:space="preserve">
<rect height="1000" style="fill:#F68F4B;" width="1718" />
<g>
	<path d="M320.802,824V324.503c-21.6,17.1-85.499,50.399-108.899,62.1l-33.3,17.1l-43.2-97.199l38.7-18   c73.799-34.2,142.199-77.4,170.999-99.899h110.7V824H320.802z" />
	<path d="M824.8,824V324.503c-21.601,17.1-85.5,50.399-108.899,62.1l-33.3,17.1l-43.2-97.199l38.7-18   c73.8-34.2,142.199-77.4,170.999-99.899h110.699V824H824.8z" />
	<path d="M1156.898,824v-83.699c16.2-73.8,89.1-138.6,173.699-212.398c42.3-36.9,88.199-81,88.199-142.199c0-54.9-36-99-105.299-99   c-55.8,0-94.5,40.5-109.8,57.6l-66.6-88.199c61.2-53.1,117.899-78.3,203.398-78.3c111.6,0,216.898,63,216.898,192.599   c0,108.899-69.299,158.398-145.799,227.698c-32.399,29.7-96.299,82.8-104.399,119.699h261.898V824H1156.898z" />
</g>
</svg>