<?xml version='1.0' encoding='utf-8'?>
<svg xmlns="http://www.w3.org/2000/svg" height="1000" id="Calque_1" version="1.1" width="1718" xml:space="preserve">
<rect height="1000" style="fill:#ED1B2A;" width="1718" />
<g>
	<path d="M320.802,836.6c-67.5,0-125.099-18-174.599-45.899l46.8-98.999   c30.6,20.699,66.6,40.499,120.599,40.499c49.5,0,111.6-27.899,111.6-102.599c0-45.9-30.601-108.899-147.6-109.799l-98.999-0.9   l25.2-330.298h333.898v105.299H309.102l-9,121.5l18,0.9C491.8,425.303,562,521.602,562,617.001   C562,738.501,465.701,836.6,320.802,836.6z" style="fill:#FFFFFF;" />
	<path d="M871.6,838.4c-170.999,0-232.199-119.699-232.199-287.998   c0-220.499,101.699-371.698,301.498-371.698c36,0,68.399,4.5,94.5,10.8l-19.8,107.999c-17.101-7.2-49.5-15.3-85.5-15.3   C842.8,282.204,777.1,346.103,769,473.902c21.6-18.9,62.1-43.2,129.598-43.2c103.5,0,188.099,69.299,188.099,188.099   C1086.697,745.7,1002.099,838.4,871.6,838.4z M859.899,530.602c-38.7,0-70.199,15.301-82.799,35.1c-7.2,10.801-7.2,35.101-7.2,54   c0,60.3,34.2,118.8,97.2,118.8c61.199,0,92.699-51.3,92.699-106.199C959.799,572.902,921.099,530.602,859.899,530.602z" style="fill:#FFFFFF;" />
	<path d="M1322.498,836.6c-81.899,0-131.399-18.899-182.699-47.699l48.6-98.1   c27,20.7,71.1,41.399,125.1,41.399c73.799,0,119.699-39.6,119.699-93.599c0-72.9-55.8-96.3-120.6-96.3h-65.699V437.002h66.6   c62.1,0,100.799-30.6,100.799-79.199c0-40.5-30.6-75.6-97.199-75.6c-58.5,0-97.199,27.9-117.899,45.9l-44.1-93.6   c54.899-36,116.1-56.7,190.799-56.7c129.599,0,203.398,75.6,203.398,160.199c0,65.699-35.1,116.099-102.6,141.299v1.8   c70.2,13.5,123.3,65.699,123.3,154.799C1569.996,747.501,1470.097,836.6,1322.498,836.6z" style="fill:#FFFFFF;" />
</g>
</svg>