<?xml version='1.0' encoding='utf-8'?>
<svg xmlns="http://www.w3.org/2000/svg" height="1000" id="Calque_1" version="1.1" width="1718" xml:space="preserve">
<rect height="1000" style="fill:#8D653A;" width="1718" />
<g>
	<path d="M521.5,691.701V824H399.101V691.701H112.903V573.802l246.598-385.197H521.5v404.097h78.3v99H521.5z    M399.101,300.204h-1.8c-2.7,10.8-20.7,49.5-45.899,89.099L221.803,592.701h177.298V300.204z" style="fill:#FFFFFF;" />
	<path d="M652.901,824v-83.699c16.2-73.8,89.1-138.6,173.699-212.398c42.299-36.9,88.199-81,88.199-142.199   c0-54.9-36-99-105.298-99c-55.8,0-94.5,40.5-109.8,57.6l-66.6-88.199c61.2-53.1,117.899-78.3,203.398-78.3   c111.599,0,216.898,63,216.898,192.599c0,108.899-69.299,158.398-145.799,227.698c-32.399,29.7-96.298,82.8-104.399,119.699   h261.898V824H652.901z" style="fill:#FFFFFF;" />
	<path d="M1375.598,838.4c-170.999,0-232.199-119.699-232.199-287.998   c0-220.499,101.699-371.698,301.498-371.698c36,0,68.399,4.5,94.5,10.8l-19.8,107.999c-17.101-7.2-49.5-15.3-85.5-15.3   c-87.299,0-152.999,63.899-161.099,191.699c21.6-18.9,62.1-43.2,129.599-43.2c103.5,0,188.099,69.299,188.099,188.099   C1590.695,745.7,1506.097,838.4,1375.598,838.4z M1363.897,530.602c-38.7,0-70.199,15.301-82.8,35.1c-7.2,10.801-7.2,35.101-7.2,54   c0,60.3,34.2,118.8,97.2,118.8c61.199,0,92.699-51.3,92.699-106.199C1463.797,572.902,1425.097,530.602,1363.897,530.602z" style="fill:#FFFFFF;" />
</g>
</svg>