<?xml version='1.0' encoding='utf-8'?>
<svg xmlns="http://www.w3.org/2000/svg" height="1000" id="Calque_1" version="1.1" width="1718" xml:space="preserve">
<rect height="1000" style="fill:#8EC3D1;" width="1718" />
<g>
	<path d="M541.002,874c-75,0-139-20-194-51l52-110c34,23,74,45,134,45c55,0,124-31,124-114c0-51-34-121-164-122l-110-1l28-367h371   v117h-254l-10,135l20,1c193,10,271,117,271,223C809.002,765,702.002,874,541.002,874z" />
	<path d="M1324,713v147h-136V713H870V582l274-428h180v449h87v110H1324z M1188,278h-2c-3,12-23,55-51,99L991,603h197V278z" />
</g>
</svg>