<?xml version='1.0' encoding='utf-8'?>
<svg xmlns="http://www.w3.org/2000/svg" height="1000" id="Calque_1" version="1.1" width="1718" xml:space="preserve">
<rect height="1000" style="fill:#F59EB3;" width="1718" />
<g>
	<path d="M320.802,824V324.503c-21.6,17.1-85.499,50.399-108.899,62.1l-33.3,17.1l-43.2-97.199l38.7-18   c73.799-34.2,142.199-77.4,170.999-99.899h110.7V824H320.802z" />
	<path d="M857.2,840.2c-191.698,0-229.498-185.399-229.498-332.099c0-146.698,41.399-332.097,233.097-332.097   c191.699,0,229.499,185.399,229.499,332.097C1090.298,654.801,1048.898,840.2,857.2,840.2z M859,283.104   c-91.799,0-94.499,160.199-94.499,224.998c0,63.9,4.5,225.899,94.499,225.899c90,0,93.599-162.899,93.599-225.899   C952.599,441.502,949.898,283.104,859,283.104z" />
	<path d="M1362.098,824h-144.899c0-83.699,22.5-137.699,78.3-241.198l154.799-287.998h-308.698V188.604h444.598v103.499   C1446.696,534.202,1362.098,724.101,1362.098,824z" />
</g>
</svg>