<?xml version='1.0' encoding='utf-8'?>
<svg xmlns="http://www.w3.org/2000/svg" height="1000" id="Calque_1" version="1.1" width="1718" xml:space="preserve">
<rect height="1000" style="fill:#ED1B2A;" width="1718" />
<g>
	<path d="M320.802,824V324.503c-21.6,17.1-85.499,50.399-108.899,62.1l-33.3,17.1l-43.2-97.199l38.7-18   c73.799-34.2,142.199-77.4,170.999-99.899h110.7V824H320.802z" style="fill:#FFFFFF;" />
	<path d="M856.299,838.4c-141.299,0-221.398-84.6-221.398-180.899c0-84.599,47.7-134.099,108.899-165.599   c-54.899-34.2-89.1-72.899-89.1-138.599c0-105.299,95.399-178.199,204.299-178.199c111.599,0,204.298,54.899,204.298,163.799   c0,59.399-30.6,105.299-89.999,141.299c58.499,27.899,109.799,78.3,109.799,161.999C1083.098,762.801,986.799,838.4,856.299,838.4z    M845.5,536.002c-41.399,16.199-82.799,57.6-82.799,107.1c0,52.199,34.199,101.699,95.399,101.699   c60.298,0,93.598-42.3,93.598-92.699C951.698,594.502,899.499,563.002,845.5,536.002z M860.799,266.904   c-49.499,0-80.999,30.6-80.999,74.7c0,52.199,52.199,80.099,92.699,97.199c33.3-15.3,69.3-52.2,69.3-91.799   C941.799,302.903,912.999,266.904,860.799,266.904z" style="fill:#FFFFFF;" />
	<path d="M1322.498,836.6c-81.899,0-131.399-18.899-182.699-47.699l48.6-98.1   c27,20.7,71.1,41.399,125.1,41.399c73.799,0,119.699-39.6,119.699-93.599c0-72.9-55.8-96.3-120.6-96.3h-65.699V437.002h66.6   c62.1,0,100.799-30.6,100.799-79.199c0-40.5-30.6-75.6-97.199-75.6c-58.5,0-97.199,27.9-117.899,45.9l-44.1-93.6   c54.899-36,116.1-56.7,190.799-56.7c129.599,0,203.398,75.6,203.398,160.199c0,65.699-35.1,116.099-102.6,141.299v1.8   c70.2,13.5,123.3,65.699,123.3,154.799C1569.996,747.501,1470.097,836.6,1322.498,836.6z" style="fill:#FFFFFF;" />
</g>
</svg>