<?xml version='1.0' encoding='utf-8'?>
<svg xmlns="http://www.w3.org/2000/svg" height="1000" id="Calque_1" version="1.1" width="1718" xml:space="preserve">
<rect height="1000" style="fill:#BB499C;" width="1718" />
<g>
	<path d="M493.002,872c-40,0-76-5-105-12l22-120c19,8,55,17,95,17c97,0,170-71,179-213c-24,21-69,48-144,48   c-115,0-209-77-209-209c0-141,94-244,239-244c190,0,258,133,258,320C828.002,704,715.002,872,493.002,872z M575.002,250   c-68,0-103,57-103,118c0,66,43,113,111,113c43,0,78-17,92-39c8-12,8-39,8-60C683.002,315,645.002,250,575.002,250z" style="fill:#FFFFFF;" />
	<path d="M1324,713v147h-136V713H870V582l274-428h180v449h87v110H1324z M1188,278h-2c-3,12-23,55-51,99   L991,603h197V278z" style="fill:#FFFFFF;" />
</g>
</svg>