<?xml version='1.0' encoding='utf-8'?>
<svg xmlns="http://www.w3.org/2000/svg" height="1000" id="Calque_1" version="1.1" width="1718" xml:space="preserve">
<rect height="1000" style="fill:#C9A2CD;" width="1718" />
<g>
	<path d="M320.802,824V324.503c-21.6,17.1-85.499,50.399-108.899,62.1l-33.3,17.1l-43.2-97.199l38.7-18   c73.799-34.2,142.199-77.4,170.999-99.899h110.7V824H320.802z" />
	<path d="M652.901,824v-83.699c16.2-73.8,89.1-138.6,173.699-212.398c42.299-36.9,88.199-81,88.199-142.199c0-54.9-36-99-105.298-99   c-55.8,0-94.5,40.5-109.8,57.6l-66.6-88.199c61.2-53.1,117.899-78.3,203.398-78.3c111.599,0,216.898,63,216.898,192.599   c0,108.899-69.299,158.398-145.799,227.698c-32.399,29.7-96.298,82.8-104.399,119.699h261.898V824H652.901z" />
	<path d="M1361.197,840.2c-191.698,0-229.498-185.399-229.498-332.099c0-146.698,41.399-332.097,233.098-332.097   c191.699,0,229.499,185.399,229.499,332.097C1594.296,654.801,1552.896,840.2,1361.197,840.2z M1362.997,283.104   c-91.799,0-94.499,160.199-94.499,224.998c0,63.9,4.5,225.899,94.499,225.899c90,0,93.6-162.899,93.6-225.899   C1456.597,441.502,1453.896,283.104,1362.997,283.104z" />
</g>
</svg>