<?xml version='1.0' encoding='utf-8'?>
<svg xmlns="http://www.w3.org/2000/svg" height="1000" id="Calque_1" version="1.1" width="1718" xml:space="preserve">
<rect height="1000" style="fill:#8D653A;" width="1718" />
<g>
	<path d="M576.002,876c-157,0-246-94-246-201c0-94,53-149,121-184c-61-38-99-81-99-154c0-117,106-198,227-198   c124,0,227,61,227,182c0,66-34,117-100,157c65,31,122,87,122,180C828.002,792,721.002,876,576.002,876z M564.002,540   c-46,18-92,64-92,119c0,58,38,113,106,113c67,0,104-47,104-103C682.002,605,624.002,570,564.002,540z M581.002,241   c-55,0-90,34-90,83c0,58,58,89,103,108c37-17,77-58,77-102C671.002,281,639.002,241,581.002,241z" style="fill:#FFFFFF;" />
	<path d="M1101,874c-75,0-139-20-194-51l52-110c34,23,74,45,134,45c55,0,124-31,124-114c0-51-34-121-164-122   l-110-1l28-367h371v117h-254l-10,135l20,1c193,10,271,117,271,223C1369,765,1262,874,1101,874z" style="fill:#FFFFFF;" />
</g>
</svg>