<?xml version='1.0' encoding='utf-8'?>
<svg xmlns="http://www.w3.org/2000/svg" height="1000" id="Calque_1" version="1.1" width="1718" xml:space="preserve">
<rect height="1000" style="fill:#DFB03A;" width="1718" />
<g>
	<path d="M148.903,824v-83.699c16.2-73.8,89.099-138.6,173.699-212.398c42.3-36.9,88.199-81,88.199-142.199c0-54.9-36-99-105.299-99   c-55.799,0-94.5,40.5-109.799,57.6l-66.6-88.199c61.2-53.1,117.899-78.3,203.399-78.3c111.599,0,216.898,63,216.898,192.599   c0,108.899-69.299,158.398-145.799,227.698c-32.399,29.7-96.299,82.8-104.399,119.699H561.1V824H148.903z" />
	<path d="M871.6,838.4c-170.999,0-232.199-119.699-232.199-287.998c0-220.499,101.699-371.698,301.498-371.698   c36,0,68.399,4.5,94.5,10.8l-19.8,107.999c-17.101-7.2-49.5-15.3-85.5-15.3C842.8,282.204,777.1,346.103,769,473.902   c21.6-18.9,62.1-43.2,129.598-43.2c103.5,0,188.099,69.299,188.099,188.099C1086.697,745.7,1002.099,838.4,871.6,838.4z    M859.899,530.602c-38.7,0-70.199,15.301-82.799,35.1c-7.2,10.801-7.2,35.101-7.2,54c0,60.3,34.2,118.8,97.2,118.8   c61.199,0,92.699-51.3,92.699-106.199C959.799,572.902,921.099,530.602,859.899,530.602z" />
	<path d="M1360.297,838.4c-141.299,0-221.398-84.6-221.398-180.899c0-84.599,47.7-134.099,108.899-165.599   c-54.899-34.2-89.1-72.899-89.1-138.599c0-105.299,95.399-178.199,204.299-178.199c111.6,0,204.299,54.899,204.299,163.799   c0,59.399-30.6,105.299-89.999,141.299c58.499,27.899,109.799,78.3,109.799,161.999   C1587.096,762.801,1490.797,838.4,1360.297,838.4z M1349.497,536.002c-41.399,16.199-82.799,57.6-82.799,107.1   c0,52.199,34.199,101.699,95.399,101.699c60.299,0,93.599-42.3,93.599-92.699C1455.696,594.502,1403.497,563.002,1349.497,536.002z    M1364.797,266.904c-49.499,0-80.999,30.6-80.999,74.7c0,52.199,52.199,80.099,92.699,97.199c33.3-15.3,69.3-52.2,69.3-91.799   C1445.797,302.903,1416.997,266.904,1364.797,266.904z" />
</g>
</svg>