<svg version="1.1" id="ligne1" xmlns="http://www.w3.org/2000/svg" xmlns:xlink="http://www.w3.org/1999/xlink" x="0px" y="0px"
	 width="1000px" height="1000px" viewBox="0 0 1000 1000" enable-background="new 0 0 1000 1000" xml:space="preserve">
<circle id="circlemetro" fill="#84C28E" cx="500" cy="500" r="500"/>
<path id="path7018" fill="#231F20" d="M672.16,570.56c0-99.305-70.519-157.01-157.11-157.01c-55.947,0-89.887,20.287-107.79,36.068
	c6.699-106.521,61.438-159.87,134.41-159.87c29.768,0,56.973,6.701,71.031,12.891l16.66-90.115
	c-21.713-5.417-48.916-8.934-78.83-8.934c-166.59,0-251.36,125.891-251.36,309.891c0,140.35,50.895,240.31,193.58,240.31
	C601.641,753.79,672.161,676.23,672.16,570.56 M566.351,581.84c0,45.625-26.254,88.43-77.401,88.43
	c-52.578,0-80.953-48.772-80.953-99.12c0-15.638,0-35.959,6.004-44.968c10.471-16.586,36.797-29.184,69.055-29.184
	c50.92,0,83.29,35.19,83.29,84.84L566.351,581.84z"/>
</svg>
