<svg version="1.1" id="ligne1" xmlns="http://www.w3.org/2000/svg" xmlns:xlink="http://www.w3.org/1999/xlink" x="0px" y="0px"
	 width="1000px" height="1000px" viewBox="0 0 1000 1000" enable-background="new 0 0 1000 1000" xml:space="preserve">
<circle id="circlemetro" fill="#84C28E" cx="500" cy="500" r="500"/>
<path id="path2703" fill="#231F20" d="M531.97,321.13v-86.444H161.32v88.542H418.44l-128.86,240.25
	c-46.578,86.255-65.372,131.351-65.372,201.16h120.88c0.03-83.46,70.36-241.68,186.88-443.51"/>
<path fill="#231F20" d="M627.25,496.88c-19.677,0-31.301,10.505-41.621,25.368v-80.04h-40.356v212.47h38.892v-8.095
	c7.754,7.137,21.211,11.854,32.917,11.854c48.845,0.002,66.987-48.079,66.987-82.524c0-37.03-16.61-79.04-56.82-79.04L627.25,496.88
	z M610.29,629.58c-18.358,0-24.633-9.438-24.633-20.071v-50.254c0-8.981,0.87-13.084,7.522-19.826
	c4.59-4.284,10.892-7.821,18.875-7.821c25.584,0.014,29.89,29.373,29.89,50.021c0,20.91-5.79,47.95-31.66,47.95L610.29,629.58z"/>
<path fill="#231F20" d="M761.68,460.42c0-12.357-8.716-21.213-22.526-21.213c-13.677,0-22.447,8.854-22.447,21.213
	c0,12.432,8.771,21.327,22.447,21.327c13.81-0.021,22.529-8.9,22.529-21.33L761.68,460.42z"/>
<rect x="718.96" y="501.24" fill="#231F20" width="40.209" height="153.439"/>
<path fill="#231F20" d="M902.74,608.63c0-23.291-13.391-35.797-34.084-43.586l-18.794-6.87c-9.725-3.477-15.997-7.204-15.997-15.203
	c0-9.208,7.902-14.617,21.278-14.617c9.872,0,22.095,3.293,31.084,9.206l12.274-29.651c-8.119-4.026-22.08-10.016-41.391-10.016
	c-35.904,0-60.267,22.673-60.267,51.747c0,17.918,8.854,32.035,30.8,40.293l17.992,6.946c8.121,3.293,19.598,6.362,19.598,16.996
	c0,12.004-13.011,15.502-23.467,15.502c-12.14,0-26.263-4.639-36.066-11.51l-12.275,30.162c8.472,5.146,25.814,11.657,45.11,11.657
	c40.229-0.029,64.21-21.14,64.21-51.069L902.74,608.63z"/>
</svg>
