<svg version="1.1" id="ligne1" xmlns="http://www.w3.org/2000/svg" xmlns:xlink="http://www.w3.org/1999/xlink" x="0px" y="0px"
	 width="1000px" height="1000px" viewBox="0 0 1000 1000" enable-background="new 0 0 1000 1000" xml:space="preserve">
<circle id="circlemetro" fill="#0065AE" cx="500" cy="500" r="500"/>
<path id="path7485" fill="#FFFFFF" d="M676.44,740.95v-88.709H457.76c6.888-30.713,60.133-75.035,87.084-99.75
	c63.855-57.997,121.62-99.188,121.62-190.01c0-108.05-87.678-160.61-180.76-160.61c-71.366,0-118.62,20.991-169.72,65.379
	l55.717,73.585c12.652-14.335,44.975-48.112,91.434-48.112c57.76,0,87.742,36.776,87.742,82.482
	c0,51.209-38.023,87.854-73.344,118.63c-70.709,61.59-131.47,115.57-144.94,177.29v69.861h343.851"/>
</svg>
