<svg version="1.1" id="ligne1" xmlns="http://www.w3.org/2000/svg" xmlns:xlink="http://www.w3.org/1999/xlink" x="0px" y="0px"
	 width="1000px" height="1000px" viewBox="0 0 1000 1000" enable-background="new 0 0 1000 1000" xml:space="preserve">
<circle id="circlemetro" fill="#CDACCF" cx="500" cy="500" r="500"/>
<path id="path7283" fill="#231F20" d="M689.21,614.92c0-69.617-42.742-111.81-91.573-134.85
	c49.568-30.175,75.206-68.454,75.206-117.9c0-90.986-77.378-136.83-170.46-136.83c-90.877,0-170.41,60.93-170.41,148.66
	c0,54.801,28.545,87.031,74.235,115.54c-51.023,26.296-90.779,67.716-90.779,138.15c0,80.397,66.693,150.909,184.58,150.909
	c108.86-0.02,189.19-62.96,189.19-163.68 M571.409,368.83c0,33.12-30.021,63.682-57.812,76.559
	c-33.705-14.272-77.302-37.62-77.302-81.059c0-36.689,26.221-62.286,67.527-62.286c43.529,0.01,67.58,29.91,67.58,66.79
	L571.409,368.83z M579.629,623.25c0,42.042-27.77,77.373-78.095,77.373c-51.103,0-79.55-41.459-79.55-84.896
	c0-41.188,34.539-75.705,69.058-89.318c44.99,22.54,88.59,48.8,88.59,96.85L579.629,623.25z"/>
</svg>
