<svg version="1.1" id="ligne1" xmlns="http://www.w3.org/2000/svg" xmlns:xlink="http://www.w3.org/1999/xlink" x="0px" y="0px"
	 width="1000px" height="1000px" viewBox="0 0 1000 1000" enable-background="new 0 0 1000 1000" xml:space="preserve">
<circle id="circlemetro" fill="#95bf32" cx="500" cy="500" r="500"/>
<path id="path2910" fill="#FFFFFF" d="M381.97,765.05V235.26h-92.421c-23.953,18.717-80.887,54.086-142.52,83.339l-32.296,14.772
	l35.95,81.188l27.869-14.159c19.375-9.83,72.85-37.443,90.772-51.829v416.46h112.64"/>
<path id="path3913" fill="#FFFFFF" d="m 828.97358,611.7103 c 0,-69.63376 -42.74641,-111.83718 -91.57804,-134.86744 49.54314,-30.20147 75.19472,-68.45416 75.19472,-117.90368 0,-90.99761 -77.38541,-136.87088 -170.46135,-136.87088 -90.88526,0 -170.42391,60.94592 -170.42391,148.70431 0,54.7858 28.55378,87.02816 74.23982,115.56321 -51.02232,26.25075 -90.77292,67.72394 -90.77292,138.16282 0,80.38122 66.69413,150.895 184.59781,150.895 108.8601,0 189.20387,-62.96809 189.20387,-163.68334 M 711.18224,365.58612 c 0,33.1411 -30.03296,63.69832 -57.81906,76.58029 -33.72154,-14.26753 -77.31051,-37.59736 -77.31051,-81.03655 0,-36.71734 26.2133,-62.31276 67.5367,-62.31276 43.51408,0 67.59287,29.90189 67.59287,66.76902 z m 8.21974,254.45626 c 0,42.05363 -27.7861,77.38541 -78.11564,77.38541 -51.09721,0 -79.53865,-41.47318 -79.53865,-84.91237 0,-41.17361 34.52667,-75.70027 69.05333,-89.31246 45.01198,22.52471 88.60096,48.79419 88.60096,96.83942 z"/>
</svg>
