<svg version="1.1" id="ligne1" xmlns="http://www.w3.org/2000/svg" xmlns:xlink="http://www.w3.org/1999/xlink" x="0px" y="0px"
	 width="1000px" height="1000px" viewBox="0 0 1000 1000" enable-background="new 0 0 1000 1000" xml:space="preserve">
<circle id="circlemetro" fill="#D5C900" cx="500" cy="500" r="500"/>
<path id="path5101" fill="#231F20" d="M314.19,406.98c0,99.162,70.443,156.92,156.74,156.92c55.817,0,90.316-20.285,108.23-35.814
	c-6.729,106.33-62.11,159.73-134.59,159.73c-29.751,0-56.866-6.734-71.316-12.757l-16.525,90.091
	c21.93,5.108,48.888,9.03,78.935,9.03c166.74,0,251.29-126.18,251.29-310.199c0-140.24-50.868-240.081-193.771-240.081
	c-108.55,0.01-178.99,77.34-178.99,183.081 M419.844,395.851c0-45.916,26.385-88.582,77.016-88.582
	c52.392,0,81.548,48.808,81.548,98.964c0,16.004,0,36.17-5.996,45.084c-10.431,16.6-43.388,35.418-75.552,35.418
	c-50.79,0-77.021-41.28-77.021-90.881L419.844,395.851z"/>
</svg>
