<svg version="1.1" id="ligne1" xmlns="http://www.w3.org/2000/svg" xmlns:xlink="http://www.w3.org/1999/xlink" x="0px" y="0px"
	 width="1000px" height="1000px" viewBox="0 0 1000 1000" enable-background="new 0 0 1000 1000" xml:space="preserve">
<circle id="circlemetro" fill="#EC7CAE" cx="500" cy="500" r="500"/>
<path id="path2908" fill="#FFFFFF" d="M381.97,765.05V235.26h-92.421c-23.953,18.717-80.887,54.086-142.52,83.339l-32.296,14.772
	l35.95,81.188l27.869-14.159c19.375-9.83,72.85-37.443,90.772-51.829v416.46h112.64"/>
<path id="path3047" fill="#FFFFFF" d="m 829.37062,591.33041 c 0,-99.32969 -70.51379,-157.0364 -157.1113,-157.0364 -55.94667,0 -89.8929,20.25914 -107.81156,36.06202 6.72184,-106.5009 61.43274,-159.88242 134.43679,-159.88242 29.77082,0 56.97648,6.72184 71.01932,12.88197 l 16.68289,-90.09887 c -21.71959,-5.41117 -48.92525,-8.93124 -78.84586,-8.93124 -166.60426,0 -251.38556,125.88002 -251.38556,309.89739 0,140.35351 50.90997,240.33853 193.60395,240.33853 108.91627,-0.0187 179.41133,-77.55393 179.41133,-183.23098 m -105.82685,11.253 c 0,45.64859 -26.25075,88.43244 -77.38541,88.43244 -52.59511,0 -80.96165,-48.77546 -80.96165,-99.105 0,-15.65309 0,-35.98712 5.99161,-44.97454 10.4666,-16.608 36.79224,-29.19038 69.05333,-29.19038 50.96614,0 83.30212,35.182 83.30212,84.83748 z"/>
</svg>
