<svg version="1.1" id="ligne1" xmlns="http://www.w3.org/2000/svg" xmlns:xlink="http://www.w3.org/1999/xlink" x="0px" y="0px"
	 width="1000px" height="1000px" viewBox="0 0 1000 1000" enable-background="new 0 0 1000 1000" xml:space="preserve">
<circle id="circlemetro" fill="#A90F32" cx="500" cy="500" r="500"/>
<path id="path2907" fill="#FFFFFF" d="M381.97,765.05V235.26h-92.421c-23.953,18.717-80.887,54.086-142.52,83.339l-32.296,14.772
	l35.95,81.188l27.869-14.159c19.375-9.83,72.85-37.443,90.772-51.829v416.46h112.64"/>
<path id="path3066" fill="#FFFFFF" d="m 786.09079,587.10826 c 0,-79.50119 -58.43694,-159.73262 -203.32152,-167.27831 l -15.14755,-0.73022 7.45207,-101.37059 H 765.88783 V 229.82097 H 487.3154 l -21.06426,275.52052 82.5719,0.73023 c 97.64455,0.95491 123.01528,53.32534 123.01528,91.65293 0,62.16297 -51.6402,85.6426 -92.88871,85.6426 -45.19922,0 -75.04493,-16.608 -100.64035,-33.9275 l -38.90803,82.72169 c 41.09871,23.18005 89.31246,38.32759 145.54,38.32759 120.76835,-0.0187 201.14956,-82.08508 201.14956,-183.38077"/>
</svg>
