<svg xmlns="http://www.w3.org/2000/svg" width="1000" height="1000" viewBox="0 0 1000 1000"><circle fill="#0065AE" cx="500" cy="500" r="500"/><path fill="#fff" d="M676.44 740.95v-88.709h-218.68c6.888-30.713 60.133-75.035 87.084-99.75 63.855-57.997 121.62-99.188 121.62-190.01 0-108.05-87.678-160.61-180.76-160.61-71.366 0-118.62 20.991-169.72 65.379l55.717 73.585c12.652-14.335 44.975-48.112 91.434-48.112 57.76 0 87.742 36.776 87.742 82.482 0 51.209-38.023 87.854-73.344 118.63-70.709 61.59-131.47 115.57-144.94 177.29v69.861h343.851"/></svg>