<svg version="1.1" id="ligne1" xmlns="http://www.w3.org/2000/svg" xmlns:xlink="http://www.w3.org/1999/xlink" x="0px" y="0px"
	 width="1000px" height="1000px" viewBox="0 0 1000 1000" enable-background="new 0 0 1000 1000" xml:space="preserve">
<circle id="circlemetro" fill="#E4B327" cx="500" cy="500" r="500"/>
<path fill="#231F20" d="M379.74,765.04V235.13h-92.366c-24.056,18.722-81.097,54.049-142.52,83.443l-32.381,14.919l36.053,81.18
	l27.859-14.419c19.372-9.784,72.688-37.59,90.756-51.703v416.5h112.6"/>
<path fill="#231F20" d="M649.64,224.66c-159.84,0-194.52,154.6-194.52,277.02c0,122.431,31.597,277.04,191.46,277.04
	c160.06,0,194.439-154.609,194.439-277.04C841.04,379.27,809.58,224.66,649.64,224.66L649.64,224.66z M648.12,690.02
	c-74.88,0-78.82-134.93-78.82-188.329c0-54.194,2.248-187.65,78.82-187.65c75.84,0,78.185,132.07,78.185,187.65
	c0,52.649-2.93,188.329-78.18,188.329H648.12z"/>
</svg>
