<svg version="1.1" id="ligne1" xmlns="http://www.w3.org/2000/svg" xmlns:xlink="http://www.w3.org/1999/xlink" x="0px" y="0px"
	 width="1000px" height="1000px" viewBox="0 0 1000 1000" enable-background="new 0 0 1000 1000" xml:space="preserve">
<circle id="circlemetro" fill="#622280" cx="500" cy="500" r="500"/>
<path id="path2906" fill="#FFFFFF" d="M381.97,765.05V235.26h-92.421c-23.953,18.717-80.887,54.086-142.52,83.339l-32.296,14.772
	l35.95,81.188l27.869-14.159c19.375-9.83,72.85-37.443,90.772-51.829v416.46h112.64"/>
<path id="path2908" fill="#FFFFFF" d="M845.57,654.46v-82.65h-65.233V234.78h-135.17l-205.67,321.23v98.452h238.7v110.3h102.14
	v-110.3h65.23 M678.197,571.812h-147.84l108.06-169.54c20.973-33.159,36.133-65.39,38.266-74.472h1.514L678.197,571.812
	L678.197,571.812z"/>
</svg>
