<svg xmlns="http://www.w3.org/2000/svg" width="1000" height="1000" viewBox="0 0 1000 1000"><circle fill="#A90F32" cx="500" cy="500" r="500"/><path fill="#fff" d="M381.97 765.05v-529.79h-92.421c-23.953 18.717-80.887 54.086-142.52 83.339l-32.296 14.772 35.95 81.188 27.869-14.159c19.375-9.83 72.85-37.443 90.772-51.829v416.46h112.64"/><path fill="#fff" d="M786.091 587.108c0-79.501-58.437-159.733-203.322-167.278l-15.148-.73 7.452-101.371h190.814v-87.908h-278.572l-21.064 275.521 82.572.73c97.645.955 123.015 53.325 123.015 91.653 0 62.163-51.64 85.643-92.889 85.643-45.199 0-75.045-16.608-100.64-33.928l-38.908 82.722c41.099 23.18 89.312 38.328 145.54 38.328 120.768-.019 201.15-82.085 201.15-183.381"/></svg>