<svg xmlns="http://www.w3.org/2000/svg" width="1000" height="1000" viewBox="0 0 1000 1000"><circle fill="#EC7CAE" cx="500" cy="500" r="500"/><path fill="#fff" d="M381.97 765.05v-529.79h-92.421c-23.953 18.717-80.887 54.086-142.52 83.339l-32.296 14.772 35.95 81.188 27.869-14.159c19.375-9.83 72.85-37.443 90.772-51.829v416.46h112.64"/><path fill="#fff" d="M829.371 591.33c0-99.33-70.514-157.036-157.111-157.036-55.947 0-89.893 20.259-107.812 36.062 6.722-106.501 61.433-159.882 134.437-159.882 29.771 0 56.976 6.722 71.019 12.882l16.683-90.099c-21.72-5.411-48.925-8.931-78.846-8.931-166.604 0-251.386 125.88-251.386 309.897 0 140.354 50.91 240.339 193.604 240.339 108.916-.019 179.411-77.554 179.411-183.231m-105.827 11.253c0 45.649-26.251 88.432-77.385 88.432-52.595 0-80.962-48.775-80.962-99.105 0-15.653 0-35.987 5.992-44.975 10.467-16.608 36.792-29.19 69.053-29.19 50.966 0 83.302 35.182 83.302 84.837z"/></svg>