<svg version="1.1" id="ligne1" xmlns="http://www.w3.org/2000/svg" xmlns:xlink="http://www.w3.org/1999/xlink" x="0px" y="0px"
	 width="1000px" height="1000px" viewBox="0 0 1000 1000" enable-background="new 0 0 1000 1000" xml:space="preserve">
<circle id="circlemetro" fill="#9F971A" cx="500" cy="500" r="500"/>
<path id="path5033" fill="#FFFFFF" d="M685.43,605.92c0-74.18-44.136-117.93-102.569-129.18v-1.348
	c56.139-21.041,85.376-63.202,85.376-117.89c0-70.614-61.407-133.66-170-133.66c-61.646,0-112.91,17.197-158.63,47.393
	l36.784,78.104c17.334-15.098,49.443-38.637,98.372-38.637c55.725,0,81.198,29.562,81.198,63.363
	c0,40.537-32.211,66.135-84.189,66.135h-55.739v87.891h54.93c54.257,0,100.69,19.258,100.69,80.203
	c0,45.014-38.151,77.943-99.877,77.943c-44.985,0-81.832-17.476-104.59-34.355l-40.291,81.59
	c42.788,24.134,84.03,39.943,152.19,39.943c123.31,0.07,206.35-74.43,206.35-167.47"/>
</svg>
