<svg version="1.1" id="ligne1" xmlns="http://www.w3.org/2000/svg" xmlns:xlink="http://www.w3.org/1999/xlink" x="0px" y="0px"
	 width="1000px" height="1000px" viewBox="0 0 1000 1000" enable-background="new 0 0 1000 1000" xml:space="preserve">
<circle id="circlemetro" fill="#99D4DE" cx="500" cy="500" r="500"/>
<path fill="#231F20" d="M387.5,764.11V234.03h-92.361c-24.092,18.695-81.189,53.871-142.73,83.105l-32.292,14.974l36.096,81.6
	l27.776-14.26c19.456-9.745,72.828-37.435,90.777-51.613v416.28h112.72"/>
<path fill="#231F20" d="M821.22,606.93c0-74.151-44.297-117.569-102.859-128.859v-1.465c56.266-20.994,85.428-62.863,85.428-117.57
	c0-71.143-61.495-134.04-169.51-134.04c-62.447,0-113.38,17.27-159.15,47.217l36.711,77.877
	c17.236-14.221,49.45-38.186,98.346-38.186c55.593,0,81.029,29.985,81.029,63.694c0,40.324-32.213,65.875-84.121,65.875H551.58
	v87.58h54.801c54.203,0,100.64,19.449,100.64,80.097c0,44.92-38.197,78.67-99.932,78.67c-44.774,0-81.604-17.271-104.17-34.464
	l-40.596,81.601c42.794,23.926,84.062,39.613,152.37,39.613c123.149-0.011,206.52-74.881,206.52-167.65L821.22,606.93z"/>
</svg>
