<svg xmlns="http://www.w3.org/2000/svg" width="1000" height="1000" viewBox="0 0 1000 1000"><path fill="#fff" stroke="#009" stroke-width="70" stroke-miterlimit="10" d="M500 35c256.81 0 465 208.19 465 465s-208.19 465-465 465-465-208.19-465-465 208.19-465 465-465z"/><path fill="#009" d="M748.71 723.71v-436.21c0-24.987-13.69-51.235-54.958-51.235-31.203 0-43.75 13.749-57.479 41.277l-135.03 281.22h-1.231l-136.27-281.22c-13.76-27.528-26.239-41.277-57.521-41.277-41.239 0-54.999 26.248-54.999 51.235v436.22c0 23.815 18.772 37.507 41.249 37.507 19.984 0 42.49-13.688 42.49-37.507v-324.97h1.271l123.73 252.49c8.756 17.512 20.033 27.539 40.036 27.539 19.966 0 31.232-10.027 39.998-27.539l123.729-252.49h1.274v324.96c0 23.815 22.457 37.507 42.476 37.507 22.54 0 41.23-13.688 41.23-37.51l.005.003z"/></svg>