<svg xmlns="http://www.w3.org/2000/svg" viewBox="0 0 40 40" enable-background="new 0 0 40 40"><path fill="#20418E" d="M3.68 0h32.64C38.35 0 40 1.65 40 3.68v32.64c0 2.03-1.65 3.68-3.68 3.68H3.68C1.65 40 0 38.35 0 36.32V3.68C0 1.65 1.65 0 3.68 0z"/><path fill="#fff" d="M36.26 20.16c0 8.98-7.28 16.27-16.27 16.27-8.98 0-16.27-7.28-16.27-16.27C3.73 11.18 11.02 3.9 20 3.9s16.26 7.28 16.26 16.26"/><path fill="#20418E" d="M28.12 11.27c-.02 1.48-.04 3.17-.05 5.07-.01 1.9-.02 3.27-.02 4.11 0 2.67.01 4.8.03 6.37.02 1.58.03 2.42.03 2.52l-1.88.92c-2.84-3.84-5.5-7.3-7.97-10.39-2.47-3.09-3.9-4.88-4.28-5.36l-.03.01c0 2.52.02 5.62.05 9.29.03 3.67.05 5.79.06 6.36h-2.2c.01-.24.02-1.07.04-2.51.02-1.44.03-3.44.03-6.01 0-1.02-.01-2.39-.01-4.08-.01-1.7-.03-3.5-.06-5.4L14 11.15c.17.22 1.61 2.05 4.33 5.49 2.71 3.44 5.27 6.64 7.67 9.59l.03-.01c0-1.45-.02-3.89-.06-7.31-.04-3.43-.06-5.97-.06-7.62l2.21-.02"/><path stroke="#20418E" stroke-width="1.882" d="M28.12 11.27c-.02 1.48-.04 3.17-.05 5.07-.01 1.9-.02 3.27-.02 4.11 0 2.67.01 4.8.03 6.37.02 1.58.03 2.42.03 2.52l-1.88.92c-2.84-3.84-5.5-7.3-7.97-10.39-2.47-3.09-3.9-4.88-4.28-5.36l-.03.01c0 2.52.02 5.62.05 9.29.03 3.67.05 5.79.06 6.36h-2.2c.01-.24.02-1.07.04-2.51.02-1.44.03-3.44.03-6.01 0-1.02-.01-2.39-.01-4.08-.01-1.7-.03-3.5-.06-5.4L14 11.15c.17.22 1.61 2.05 4.33 5.49 2.71 3.44 5.27 6.64 7.67 9.59l.03-.01c0-1.45-.02-3.89-.06-7.31-.04-3.43-.06-5.97-.06-7.62l2.21-.02z" fill="none"/><path fill="#EE8422" d="M33.45 6.87l.71 2 1.93-.9-.92 1.91 2.01.72-2.01.72.92 1.92-1.93-.91-.71 2-.72-2-1.93.91.92-1.92-2.01-.72 2.01-.72-.92-1.91 1.93.9.72-2"/><path stroke="#EE8422" stroke-width=".373" stroke-linecap="round" stroke-linejoin="round" d="M31.72 9.88l-.92-1.91 1.93.9.72-2 .71 2 1.93-.9-.92 1.91 2.01.72-2.01.72.92 1.92-1.93-.91-.71 2-.72-2-1.93.91.92-1.92-2.01-.72z" fill="none"/></svg>