<svg version="1.1" id="ligne1" xmlns="http://www.w3.org/2000/svg" xmlns:xlink="http://www.w3.org/1999/xlink" x="0px" y="0px"
	 width="1000px" height="1000px" viewBox="0 0 1000 1000" enable-background="new 0 0 1000 1000" xml:space="preserve">
<path fill="none" stroke="#000099" stroke-width="70" stroke-miterlimit="10" d="M500,35c256.81,0,465,208.19,465,465
	c0,256.81-208.19,465-465,465C243.19,965,35,756.81,35,500C35,243.19,243.19,35,500,35z"/>
<path fill="#000099" d="M605.01,640.01c0-15.045-10.008-31.25-27.479-31.25H482.51v-86.244h78.779
	c17.475,0,27.443-15.01,27.443-28.748c0-14.973-9.974-28.785-27.443-28.785h-78.78v-78.774h87.59
	c17.438,0,27.441-17.436,27.441-31.213c0-14.973-10.006-31.25-27.441-31.25H442.54c-17.51,0-27.498,13.812-27.498,28.785V645.02
	c0,17.513,17.512,26.245,33.771,26.245h128.749c17.439-0.02,27.449-17.5,27.449-31.27L605.01,640.01z"/>
<path fill="#000099" d="M798.78,518.78c32.443-16.277,60-45.027,60-96.289c0-67.502-49.994-98.752-98.793-98.752h-93.715
	c-17.478,0-27.56,13.812-27.56,28.785v293.68c0,17.584,17.55,26.32,33.791,26.32c18.705,0,33.752-8.736,33.752-26.32v-113.72h28.711
	l56.347,126.31c4.928,9.969,13.696,13.738,23.707,13.738c20.014,0,48.762-18.742,37.561-41.293l-53.81-112.46L798.78,518.78z
	 M726.311,482.49h-20.053V381.23h23.783c31.253,0,58.771,13.776,58.771,48.762c0.01,42.53-38.75,52.5-62.5,52.5L726.311,482.49z"/>
<path fill="#000099" d="M315.05,518.78c32.522-16.277,59.946-45.027,59.946-96.289c0-67.502-49.994-98.752-98.717-98.752h-93.734
	c-17.51,0-27.479,13.812-27.479,28.785v293.68c0,17.584,17.473,26.32,33.715,26.32c18.799,0,33.732-8.736,33.732-26.32v-113.72
	H251.3l56.246,126.31c5.004,9.969,13.76,13.738,23.729,13.738c19.991,0,48.762-18.742,37.481-41.293l-53.71-112.46L315.05,518.78z
	 M242.55,482.49h-20.031V381.23h23.766c31.268,0,58.785,13.776,58.785,48.762c-0.01,42.53-38.81,52.5-62.53,52.5L242.55,482.49z"/>
</svg>
