<svg version="1.1" id="ligne1" xmlns="http://www.w3.org/2000/svg" xmlns:xlink="http://www.w3.org/1999/xlink" x="0px" y="0px"
	 width="1000px" height="1000px" viewBox="0 0 1000 1000" enable-background="new 0 0 1000 1000" xml:space="preserve">
<circle fill="#FFFFFF" stroke="#F4D416" stroke-width="70" stroke-miterlimit="10" cx="500" cy="500" r="465"/>
<path id="path9203" fill="#F5D210" d="M659.11,718.87l-27.013-82.51c-24.354,14.332-58.905,25.909-96.826,25.909
	c-75.845,0-141.93-58.623-142.02-158.779c-0.078-76.275,34.15-163.721,134.23-163.681c30.771,0,65.37,8.947,96.942,26.113
	l34.678-88.016c-34.795-15.791-78.252-27.855-137.649-27.977c-161.48,0-238.72,122.06-238.72,256.32
	c0.122,141.66,92.334,246.07,238.72,246.11c47.05-0.08,102.83-15.83,137.66-33.48"/>
</svg>
