<svg version="1.1" id="ligne1" xmlns="http://www.w3.org/2000/svg" xmlns:xlink="http://www.w3.org/1999/xlink" x="0px" y="0px"
	 width="1000px" height="1000px" viewBox="0 0 1000 1000" enable-background="new 0 0 1000 1000" xml:space="preserve">
<circle fill="#FFFFFF" stroke="#468FCC" stroke-width="70" stroke-miterlimit="10" cx="500" cy="500" r="465"/>
<path id="path7802" fill="#468FCC" d="M705.08,588.4c0-67.713-41.15-106.96-92.027-113.91v-1.275
	c37.404-6.836,76.316-44.149,76.316-93.553c0-103.67-95.039-121.29-172.88-121.29h-178.86v478.39h171.311
	c90.659-0.01,196.14-27.819,196.14-148.37 M589.059,393.872c0,54.965-56.146,54.229-92.026,54.229h-53.154V338.362h51.609
	c34.439,0,93.569-1.391,93.569,55.51H589.059z M598.789,585.612c0,62.381-43.408,71.883-92.76,71.883H443.9v-133.49h56.145
	c35.18,0,98.75,2.08,98.75,61.61L598.789,585.612z"/>
</svg>
