<svg xmlns="http://www.w3.org/2000/svg" width="1000" height="1000" viewBox="0 0 1000 1000"><circle fill="#fff" stroke="#468FCC" stroke-width="70" stroke-miterlimit="10" cx="500" cy="500" r="465"/><path fill="#468FCC" d="M705.08 588.4c0-67.713-41.15-106.96-92.027-113.91v-1.275c37.404-6.836 76.316-44.149 76.316-93.553 0-103.67-95.039-121.29-172.88-121.29h-178.86v478.39h171.311c90.659-.01 196.14-27.819 196.14-148.37m-116.021-194.52c0 54.965-56.146 54.229-92.026 54.229h-53.154v-109.739h51.609c34.439 0 93.569-1.391 93.569 55.51h.002zm9.73 191.74c0 62.381-43.408 71.883-92.76 71.883h-62.129v-133.49h56.145c35.18 0 98.75 2.08 98.75 61.61l-.006-.003z"/></svg>