<svg xmlns="http://www.w3.org/2000/svg" width="1000" height="1000" viewBox="0 0 1000 1000"><circle fill="#fff" stroke="#1CAFC9" stroke-width="70" stroke-miterlimit="10" cx="500" cy="500" r="465"/><path fill="#1CAFC9" d="M313.075 407.733c0 99.377 70.654 157.274 157.199 157.274 55.983 0 90.578-20.375 108.532-35.909-6.735 106.563-62.287 160.05-134.986 160.05-29.83 0-57.015-6.735-71.517-12.758l-16.566 90.278c21.988 5.122 49.023 9.08 79.153 9.08 167.236 0 252.036-126.487 252.036-310.87 0-140.558-51.011-240.629-194.345-240.629-108.87 0-179.505 77.502-179.505 183.483m105.962-11.144c0-46.021 26.453-88.815 77.239-88.815 52.55 0 81.779 48.947 81.779 99.227 0 15.984 0 36.209-6.004 45.139-10.469 16.641-43.526 35.533-75.776 35.533-50.936 0-77.239-41.406-77.239-91.085z"/></svg>