<svg xmlns="http://www.w3.org/2000/svg" width="1000" height="1000" viewBox="0 0 1000 1000"><circle fill="#fff" stroke="#F58A49" stroke-width="70" stroke-miterlimit="10" cx="500" cy="500" r="465"/><path fill="#F78C48" d="M353.738 774.52c-74.205 0-115.21-18.574-149.35-38.934l40.912-80.07c21.46 15.644 57.574 34.137 101.6 34.137 59.422 0 97.547-35.142 97.547-78.983 0-59.502-45.84-80.15-98.647-80.15h-53.62v-85.873h54.69c50.668 0 81.92-25.284 81.92-65.271 0-33.211-24.443-63.44-79.133-63.44-47.719 0-78.938 22.287-95.602 37.005l-37.994-76.083c43.861-29.289 91.743-45.854 157-45.854 105.52 0 164.98 62.5 164.98 131.71 0 53.731-28.269 95.711-82.99 116.15v1.992c56.732 10.715 100.56 54.559 100.56 126.801.08 90.76-81.97 166.84-201.879 166.84l.006.023zM854.18 621.088l-4.235-48.068c-3.135 1.045-8.965 2.64-12.154 2.64-8.965 0-10.01-8.415-10.01-18.479v-126.704c0-81.309-63.907-95.564-103.506-95.564-45.373 0-79.197 8.448-112.415 29.567l24.254 51.214c12.154-10.56 36.958-25.871 69.682-25.871 35.418 0 51.753 14.255 51.753 35.902v19.535c0 9.504-6.875 10.032-18.479 10.032-62.312 0-142.554 14.783-142.554 91.329 0 48.068 33.824 85.026 83.431 85.026 38.553 0 60.167-14.794 83.431-42.238 4.235 22.164 17.434 38.553 43.833 38.553 17.379 0 35.858-4.235 46.968-6.875m-97.126-93.441c0 13.694-3.74 24.254-12.154 33.219-9.515 10.065-23.264 15.344-39.598 15.344-20.624 0-35.363-14.794-35.363-35.363 0-33.813 39.048-40.148 64.897-40.148 7.92 0 15.839-.528 22.219 0v26.949"/></svg>