<svg version="1.1" id="ligne1" xmlns="http://www.w3.org/2000/svg" xmlns:xlink="http://www.w3.org/1999/xlink" x="0px" y="0px"
	 width="1000px" height="1000px" viewBox="0 0 1000 1000" enable-background="new 0 0 1000 1000" xml:space="preserve">
<circle fill="#FFFFFF" stroke="#C4D887" stroke-width="70" stroke-miterlimit="10" cx="500" cy="500" r="465"/>
<path id="path3816" fill="#C4D887" d="M 406.88684,767.86316 V 232.82341 H 318.52447 C 295.51154,251.72603 240.94315,287.39538 182.18411,317.07255 L 151.20179,332.13795 185.69426,414.09987 212.3427,399.54482 C 230.8784,389.65876 281.88285,361.5883 299.16492,347.33568 V 767.86316 H 406.88684 M 848.17952,501.95947 C 848.17952,378.35497 818.09262,222.25679 665.09709,222.25679 512.17315,222.25679 479.00593,378.35497 479.00593,501.95947 479.00593,625.56396 509.23613,781.6621 662.16002,781.6621 815.29882,781.6621 848.17952,625.56396 848.17952,501.95947 z M 738.41602,501.95947 C 738.41602,555.11371 735.62222,692.10129 663.62856,692.10129 591.99305,692.10129 588.21426,555.86982 588.21426,501.95947 588.21426,447.23623 590.38123,312.4981 663.62856,312.4981 736.17742,312.4981 738.41602,445.83744 738.41602,501.95947 z"/>
</svg>
