<svg version="1.1" id="ligne1" xmlns="http://www.w3.org/2000/svg" xmlns:xlink="http://www.w3.org/1999/xlink" x="0px" y="0px"
	 width="1000px" height="1000px" viewBox="0 0 1000 1000" enable-background="new 0 0 1000 1000" xml:space="preserve">
<circle fill="#FFFFFF" stroke="#00A962" stroke-width="70" stroke-miterlimit="10" cx="500" cy="500" r="465"/>
<path fill="#00A962" d="m 352.76477,777.74975 c -76.045,0 -118.05,-19.037 -153.03,-39.891 l 41.929,-82.048 c 21.957,16.02 58.978,34.982 104.07,34.982 60.889,0 99.97,-36.012 99.97,-80.943 0,-60.969 -46.987,-82.123 -101.08,-82.123 h -54.968 v -87.988 h 56.055 c 51.896,0 83.933,-25.913 83.933,-66.89 0,-34.026 -25.03,-64.998 -81.085,-64.998 -48.88,0 -80.86,22.84 -97.928,37.904 l -38.931,-77.945 c 44.927,-30.016 93.975,-46.992 160.86,-46.992 108.1,0 169.05,64.042 169.05,134.96 0,55.049 -28.983,98.068 -85.038,119.02 v 2.0423 c 58.116,10.98 103.04,55.91 103.04,129.92 0.04,93.028 -83.97,170.99 -206.85,170.99 z"/>
<path fill="#00A962" d="m 869.11798,482.52017 c 0,-68.112 -30.624,-145.2 -104.544,-145.2 -35.904,0 -57.552,19.008 -76.56,46.464 v -147.312 h -74.448 v 390.72 h 71.808 v -14.784 c 14.256,13.2 39.072,21.648 60.192,21.648 90.288,0 123.552,-88.176 123.552,-151.536 m -77.616,10.56 c 0,38.544 -10.56,88.176 -58.08,88.176 -33.792,0 -45.408,-17.424 -45.408,-36.96 v -92.4 c 0,-16.368 1.584,-24.288 14.256,-36.432 7.92,-7.92 19.536,-14.256 34.32,-14.256 46.992,0 54.912,53.856 54.912,91.872"/>
</svg>
