<svg xmlns="http://www.w3.org/2000/svg" width="1000" height="1000" viewBox="0 0 1000 1000"><circle fill="#fff" stroke="#BA3187" stroke-width="70" stroke-miterlimit="10" cx="500" cy="500" r="465"/><path fill="#BA3187" d="M341.5 745.08v-66.406c12.771-58.711 70.706-110.149 137.88-168.72 33.589-29.355 69.983-64.354 69.983-113.05 0-43.541-28.49-78.542-83.462-78.542-44.456 0-75.082 32.179-87.291 45.655l-52.923-69.859c48.688-42.34 93.64-62.205 161.6-62.205 88.611 0 172.16 49.785 172.16 153.02 0 86.442-54.97 125.681-115.66 180.58-25.812 23.711-76.616 65.909-82.897 95.267h207.94v84.258h-327.33"/></svg>