<svg version="1.1" id="ligne1" xmlns="http://www.w3.org/2000/svg" xmlns:xlink="http://www.w3.org/1999/xlink" x="0px" y="0px"
	 width="1000px" height="1000px" viewBox="0 0 1000 1000" enable-background="new 0 0 1000 1000" xml:space="preserve">
<circle fill="#FFFFFF" stroke="#ED5839" stroke-width="70" stroke-miterlimit="10" cx="500" cy="500" r="465"/>
<path id="path2822" fill="#ED5839" d="m 679.3726,588.37175 c 0,-95.52975 -67.81625,-151.0288 -151.10085,-151.0288 -53.8064,0 -86.4539,19.4841 -103.6871,34.6824 6.4647,-102.4266 59.0826,-153.7659 129.29375,-153.7659 28.63195,0 54.7968,6.4647 68.3024,12.38916 l 16.04465,-86.652 c -20.88865,-5.2042 -47.05355,-8.58965 -75.82955,-8.58965 -160.2306,0 -241.7685,121.06439 -241.7685,298.04194 0,134.98409 48.96235,231.14415 186.19745,231.14415 C 611.5744,764.57805 679.3726,690.006 679.3726,588.37175 M 577.5943,599.1942 c 0,43.90229 -25.24655,85.04945 -74.425,85.04945 -50.583,0 -77.8644,-46.90955 -77.8644,-95.31365 0,-15.0543 0,-34.6104 5.7625,-43.254 10.06605,-15.97265 35.38465,-28.0737 66.4116,-28.0737 49.01635,0 80.1153,33.8361 80.1153,81.5919 z" />
</svg>
