<svg version="1.1" id="ligne1" xmlns="http://www.w3.org/2000/svg" xmlns:xlink="http://www.w3.org/1999/xlink" x="0px" y="0px"
	 width="1000px" height="1000px" viewBox="0 0 1000 1000" enable-background="new 0 0 1000 1000" xml:space="preserve">
<circle fill="#FFFFFF" stroke="#00A962" stroke-width="70" stroke-miterlimit="10" cx="500" cy="500" r="465"/>
<path fill="#00A962" d="M340.28,775.71c-74.534,0-115.71-18.671-149.99-39.097l41.098-80.408
	c21.517,15.688,57.815,34.268,102.02,34.268c59.677,0,97.974-35.282,97.974-79.332c0-59.769-46.049-80.501-99.065-80.501h-53.878
	v-86.222h54.939c50.863,0,82.271-25.409,82.271-65.582c0-33.345-24.531-63.706-79.473-63.706c-47.911,0-79.257,22.396-95.99,37.159
	l-38.16-76.409c44.035-29.407,92.115-46.049,157.67-46.049c105.96,0,165.689,62.782,165.689,132.27
	c0,53.954-28.407,96.129-83.348,116.681v1.999c56.954,10.767,100.99,54.785,100.99,127.35
	C543.119,699.3,460.729,775.71,340.28,775.71L340.28,775.71z"/>
<path fill="#00A962" d="M846.5,334.54c21.256,26.916,31.837,61.645,31.837,104.19c0,44.11-10.458,80.654-31.406,109.659
	c-20.947,28.979-50.172,43.496-87.698,43.496c-23.563,0-42.515-4.707-56.785-14.089c-8.553-5.537-17.842-15.257-27.777-29.161
	v35.685h-73.182V200.91h74.228V337.39c9.443-13.195,19.841-23.256,31.191-30.207c13.44-8.675,30.605-13.012,51.4-13.012
	c37.57,0.01,66.94,13.45,88.2,40.37L846.5,334.54z M784.46,507.48c10.674-15.44,16.026-35.773,16.026-60.938
	c0-20.148-2.614-36.82-7.874-50.017c-9.998-25.011-28.362-37.499-55.155-37.499c-27.132,0-45.771,12.242-55.924,36.729
	c-5.291,13.012-7.875,29.869-7.875,50.509c0,24.332,5.414,44.449,16.242,60.445c10.889,15.965,27.438,23.963,49.646,23.963
	c19.25,0.01,34.23-7.71,44.91-23.18L784.46,507.48z"/>
</svg>
