<svg version="1.1" id="ligne1" xmlns="http://www.w3.org/2000/svg" xmlns:xlink="http://www.w3.org/1999/xlink" x="0px" y="0px"
	 width="1000px" height="1000px" viewBox="0 0 1000 1000" enable-background="new 0 0 1000 1000" xml:space="preserve">
<circle fill="#FFFFFF" stroke="#1CAFC9" stroke-width="70" stroke-miterlimit="10" cx="500" cy="500" r="465"/>
<path id="path3812" fill="#1CAFC9" d="m 313.07458,407.7333 c 0,99.37715 70.654,157.27365 157.1986,157.27365 55.98285,0 90.57821,-20.3745 108.53246,-35.9086 -6.7352,106.5626 -62.28655,160.05024 -134.9855,160.05024 -29.83001,0 -57.01476,-6.73519 -71.517,-12.7575 l -16.566,90.278 c 21.98795,5.12175 49.02255,9.08036 79.15275,9.08036 167.23569,0 252.03553,-126.4868 252.03553,-310.87005 0,-140.55754 -51.01123,-240.62884 -194.34538,-240.62884 -108.8702,0 -179.50545,77.5018 -179.50545,183.48274 m 105.96225,-11.144 c 0,-46.0208 26.45305,-88.8147 77.2391,-88.8147 52.5496,0 81.7793,48.9475 81.7793,99.22705 0,15.9844 0,36.20875 -6.00355,45.139 -10.46865,16.641 -43.52555,35.53335 -75.77575,35.53335 -50.93615,0 -77.2391,-41.40555 -77.2391,-91.0847 z"/>
</svg>
