<svg version="1.1" id="ligne1" xmlns="http://www.w3.org/2000/svg" xmlns:xlink="http://www.w3.org/1999/xlink" x="0px" y="0px"
	 width="1000px" height="1000px" viewBox="0 0 1000 1000" enable-background="new 0 0 1000 1000" xml:space="preserve">
<circle fill="#FFFFFF" stroke="#F58A49" stroke-width="70" stroke-miterlimit="10" cx="500" cy="500" r="465"/>
<path fill="#F78C48" d="m 353.73819,774.52 c -74.205,0 -115.21,-18.574 -149.35,-38.934 l 40.912,-80.07 c 21.46,15.644 57.574,34.137 101.6,34.137 59.422,0 97.547,-35.142 97.547,-78.983 0,-59.502 -45.84,-80.15 -98.647,-80.15 h -53.62 v -85.873 h 54.69 c 50.668,0 81.92,-25.284 81.92,-65.271 0,-33.211 -24.443,-63.44 -79.133,-63.44 -47.719,0 -78.938,22.287 -95.602,37.005 l -37.994,-76.083 c 43.861,-29.289 91.743,-45.854 157,-45.854 105.52,0 164.98,62.5 164.98,131.71 0,53.731 -28.269,95.711 -82.99,116.15 v 1.992 c 56.732,10.715 100.56,54.559 100.56,126.801 0.08,90.76 -81.97,166.84 -201.879,166.84 l 0.006,0.023 z"/>
<path fill="#F78C48" d="m 854.18038,621.08817 -4.23482,-48.06794 c -3.13487,1.04495 -8.96462,2.63988 -12.15448,2.63988 -8.96462,0 -10.00957,-8.41464 -10.00957,-18.47921 V 430.47731 c 0,-81.30853 -63.90727,-95.56392 -103.50558,-95.56392 -45.37307,0 -79.19662,8.44764 -112.41521,29.56674 l 24.25397,51.21381 c 12.15448,-10.55955 36.95842,-25.8709 69.68202,-25.8709 35.41849,0 51.7528,14.2554 51.7528,35.90247 v 19.53517 c 0,9.50359 -6.87471,10.03157 -18.47922,10.03157 -62.31234,0 -142.55391,14.78337 -142.55391,91.3291 0,48.06795 33.82356,85.02637 83.43144,85.02637 38.55335,0 60.16743,-14.79437 83.43144,-42.23819 4.23482,22.16405 17.43425,38.55335 43.83313,38.55335 17.37925,0 35.85846,-4.23482 46.96799,-6.87471 m -97.12585,-93.44101 c 0,13.69442 -3.73984,24.25397 -12.15448,33.21858 -9.5146,10.06457 -23.26401,15.34435 -39.59831,15.34435 -20.62412,0 -35.36349,-14.79437 -35.36349,-35.36349 0,-33.81256 39.04833,-40.14829 64.89722,-40.14829 7.91967,0 15.83933,-0.52797 22.21906,0 v 26.94885"/>
</svg>
