<svg version="1.1" id="ligne1" xmlns="http://www.w3.org/2000/svg" xmlns:xlink="http://www.w3.org/1999/xlink" x="0px" y="0px"
	 width="1000px" height="1000px" viewBox="0 0 1000 1000" enable-background="new 0 0 1000 1000" xml:space="preserve">
<circle fill="#FFFFFF" stroke="#F58A49" stroke-width="70" stroke-miterlimit="10" cx="500" cy="500" r="465"/>
<path fill="#F78C48" d="M340.94,774.52c-74.205,0-115.21-18.574-149.35-38.934l40.912-80.07
	c21.46,15.644,57.574,34.137,101.6,34.137c59.422,0,97.547-35.142,97.547-78.983c0-59.502-45.84-80.15-98.647-80.15h-53.62v-85.873
	h54.69c50.668,0,81.92-25.284,81.92-65.271c0-33.211-24.443-63.44-79.133-63.44c-47.719,0-78.938,22.287-95.602,37.005
	l-37.994-76.083c43.861-29.289,91.743-45.854,157-45.854c105.52,0,164.98,62.5,164.98,131.71c0,53.731-28.269,95.711-82.99,116.15
	v1.992c56.732,10.715,100.56,54.559,100.56,126.801c0.08,90.76-81.97,166.84-201.879,166.84L340.94,774.52z"/>
<path fill="#F78C48" d="M715.6,412c13.746-1.718,23.602-3.89,29.5-6.482c10.634-4.489,15.949-11.492,15.949-21.006
	c0-11.572-4.084-19.58-12.221-23.988c-8.139-4.408-20.131-6.613-35.889-6.613c-17.699,0-30.244,4.328-37.604,12.967
	c-5.252,6.402-8.752,15.042-10.504,25.934h-71.33c1.556-24.718,8.492-45.025,20.844-60.942
	c19.613-24.896,53.296-37.345,101.05-37.345c31.091,0,58.709,6.144,82.827,18.413c24.152,12.286,36.211,35.448,36.211,69.502
	v129.671c0,8.995,0.162,19.888,0.521,32.677c0.521,9.691,1.978,16.257,4.408,19.709c2.432,3.469,6.062,6.32,10.893,8.559v10.894
	H769.86c-2.236-5.705-3.794-11.056-4.669-16.078c-0.875-5.009-1.558-10.714-2.073-17.116c-10.244,11.07-22.078,20.487-35.467,28.268
	c-16.015,9.157-34.104,13.744-54.27,13.744c-25.739,0-47.006-7.31-63.799-21.913c-16.76-14.604-25.156-35.303-25.156-62.109
	c0-34.751,13.486-59.907,40.49-75.467c14.815-8.462,36.601-14.523,65.322-18.153l25.37-3.11L715.6,412z M760.79,446.5
	c-4.734,2.95-9.531,5.315-14.33,7.132c-4.83,1.815-11.443,3.501-19.84,5.059l-16.824,3.11c-15.787,2.772-27.102,6.146-33.975,10.114
	c-11.641,6.743-17.475,17.214-17.475,31.38c0,12.627,3.566,21.752,10.666,27.36c7.102,5.624,15.754,8.428,25.936,8.428
	c16.145,0,31.021-4.668,44.641-14.004c13.615-9.336,20.683-26.354,21.201-51.089V446.5z"/>
</svg>
