<svg xmlns="http://www.w3.org/2000/svg" width="1000" height="1000" viewBox="0 0 1000 1000"><circle fill="#fff" stroke="#C4D887" stroke-width="70" stroke-miterlimit="10" cx="500" cy="500" r="465"/><path fill="#C4D887" d="M406.887 767.863v-535.04h-88.362c-23.013 18.903-77.581 54.572-136.34 84.249l-30.982 15.065 34.492 81.962 26.648-14.555c18.536-9.886 69.54-37.957 86.822-52.209v420.527h107.722m441.293-265.904c0-123.605-30.087-279.703-183.082-279.703-152.924 0-186.091 156.098-186.091 279.703 0 123.604 30.23 279.703 183.154 279.703 153.139 0 186.019-156.098 186.019-279.703zm-109.764 0c0 53.154-2.794 190.142-74.787 190.142-71.636 0-75.414-136.231-75.414-190.142 0-54.723 2.167-189.461 75.414-189.461 72.549 0 74.787 133.339 74.787 189.461z"/></svg>