<svg version="1.1" id="ligne1" xmlns="http://www.w3.org/2000/svg" xmlns:xlink="http://www.w3.org/1999/xlink" x="0px" y="0px"
	 width="1000px" height="1000px" viewBox="0 0 1000 1000" enable-background="new 0 0 1000 1000" xml:space="preserve">
<circle fill="#FFFFFF" stroke="#B1A245" stroke-width="70" stroke-miterlimit="10" cx="500" cy="500" r="465"/>
<path id="path2822" fill="#B1A245" d="m 677.82096,607.49059 c 0,-66.25084 -40.66972,-106.40394 -87.12902,-128.31529 47.1362,-28.7343 71.54165,-65.12865 71.54165,-112.17585 0,-86.57684 -73.62595,-130.22149 -162.18015,-130.22149 -86.46996,0 -162.14455,57.98509 -162.14455,141.48004 0,52.1243 27.16665,82.8002 70.6332,109.94905 -48.5436,24.97545 -86.36306,64.4338 -86.36306,131.45069 0,76.47621 63.45406,143.5643 175.62981,143.5643 103.57155,0 180.01213,-59.90905 180.01213,-155.73145 M 565.75208,373.3235 c 0,31.531 -28.5739,60.60375 -55.01015,72.85995 -32.08334,-13.57445 -73.5547,-35.7709 -73.5547,-77.09975 0,-34.9336 24.93985,-59.28555 64.25565,-59.28555 41.40015,0 64.3092,28.44926 64.3092,63.52535 z m 7.8204,242.09445 c 0,40.01059 -26.4363,73.62595 -74.3207,73.62595 -48.6148,0 -75.67455,-39.45835 -75.67455,-80.7872 0,-39.17345 32.8493,-72.0227 65.6986,-84.9736 42.82525,21.43045 84.29665,46.4237 84.29665,92.13485 z"/>
</svg>
