<svg xmlns="http://www.w3.org/2000/svg" width="1000" height="1000" viewBox="0 0 1000 1000"><path fill="#fff" stroke="#C8D82C" stroke-width="70" d="M170.508 35h658.983c74.847 0 135.509 60.673 135.509 135.509v658.982c0 74.841-60.667 135.509-135.509 135.509h-658.983c-74.841 0-135.508-60.674-135.508-135.509v-658.982c-.105-74.841 60.518-135.509 135.425-135.509h.083z"/><path fill="#C7D52A" d="M516.02 554.94c-.229 35.107-6.594 59.284-19.091 72.501-12.496 13.216-29.758 19.499-51.795 18.822-10.269-.036-19.896-.799-28.88-2.29-9-1.488-17.094-3.461-24.282-5.884l-11.592 83.835c10.606 3.437 22.792 6.105 36.549 8.016 13.757 1.898 26.805 2.865 39.104 2.894 50.952.825 90.829-12.239 119.62-39.192 28.809-26.943 43.452-72.73 43.967-137.34v-290.36h-103.61v289.01-.01l.01-.002z"/></svg>