<svg version="1.1" id="ligne1" xmlns="http://www.w3.org/2000/svg" xmlns:xlink="http://www.w3.org/1999/xlink" x="0px" y="0px"
	 width="1000px" height="1000px" viewBox="0 0 1000 1000" enable-background="new 0 0 1000 1000" xml:space="preserve">
<path id="rect5674" fill="#FFFFFF" stroke="#F6B11B" stroke-width="70" d="M170.508,35h658.983C904.338,35,965,95.673,965,170.509
	v658.982C965,904.332,904.333,965,829.491,965H170.508C95.667,965,35,904.326,35,829.491V170.509
	C34.895,95.668,95.518,35,170.425,35H170.508z"/>
<path id="text3076_1_" fill="#F7B018" d="M335.05,731.4H437.98V567.13c4.797,0.692,10.192,1.198,16.188,1.544
	c5.991,0.338,12.408,0.506,19.255,0.506c30.841,0.071,58.958-3.815,84.341-11.67c25.4-7.854,47.038-20.094,64.932-36.727
	c13.686-13.064,24.141-28.854,31.347-47.366c7.225-18.518,10.854-39.078,10.917-61.687c-0.214-22.663-4.739-43.111-13.553-61.346
	c-8.813-18.229-20.661-33.229-35.527-44.984c-15.265-12.27-34.489-21.469-57.688-27.606c-23.183-6.133-50.758-9.199-82.727-9.199
	c-31.578,0.053-58.899,0.963-81.962,2.725c-23.058,1.762-42.543,4.034-58.448,6.816v453.26L335.05,731.4z M437.98,351.07
	c3.744-1.065,9.198-2.001,16.356-2.813c7.158-0.808,16.015-1.233,26.581-1.277c26.044,0.173,46.031,6.137,59.982,17.893
	c13.942,11.76,20.98,28.29,21.123,49.59c-0.267,23.697-8.245,42.073-23.937,55.124c-15.69,13.046-37.472,19.667-65.349,19.849
	c-7.455,0.014-14.015-0.182-19.682-0.595s-10.693-1.123-15.079-2.13V351.07H437.98z"/>
</svg>
