<svg version="1.1" id="ligne1" xmlns="http://www.w3.org/2000/svg" xmlns:xlink="http://www.w3.org/1999/xlink" x="0px" y="0px"
	 width="1000px" height="1000px" viewBox="0 0 1000 1000" enable-background="new 0 0 1000 1000" xml:space="preserve">
<path id="rect5674" fill="#FFFFFF" stroke="#000099" stroke-width="70" d="M170.508,35h658.983C904.338,35,965,95.673,965,170.509
	v658.982C965,904.332,904.333,965,829.491,965H170.508C95.667,965,35,904.326,35,829.491V170.509
	C34.895,95.668,95.518,35,170.425,35H170.508z"/>
<path fill="#000099" d="M685.35,744.39c-27.302-40.304-49.646-75.596-49.646-78.427c0-3.266,4.61-6.666,12.615-9.31
	c16.055-5.3,38.397-24.896,47.247-41.425c6.843-12.799,6.853-12.993,6.853-195.882c0-182.887-0.01-183.08-6.853-195.88
	c-8.898-16.631-31.432-36.324-46.854-40.944c-8.549-2.562-53.719-3.649-151.62-3.649h-139.45l-16.052,7.999
	c-18.188,9.065-29.747,21.349-39.185,41.649c-6.346,13.651-6.491,17.893-6.491,190.832v176.858l8.722,17.764
	c10.002,20.365,28.288,37.466,46.775,43.737c8.019,2.717,12.624,6.124,12.383,9.148c-0.21,2.645-21.936,36.707-48.274,75.686
	c-26.342,38.979-48.941,72.617-50.221,74.75c-1.795,2.985,3.954,3.869,25.002,3.838l27.333-0.039l35.606-52.83
	c21.94-32.55,38.016-53.404,41.888-54.347c3.458-0.84,53.038-1.136,110.18-0.662l103.892,0.868l36.058,52.753l36.058,52.742
	l26.838,0.903c14.757,0.485,26.833,0.047,26.833-0.982c0.01-1.04-22.33-34.87-49.643-75.16l-0.01,0.01L685.35,744.39z M416.9,528.98
	c-4.652,5.522-12.412,12.096-17.245,14.595c-35.397,18.304-74.441-27.218-51.994-60.618c15.981-23.776,42.946-27.194,63.8-8.082
	c9.551,8.754,11.282,12.51,12.493,27.104c1.24,15.013,0.438,18.093-7.062,27.001L416.9,528.98z M499.12,402.28
	c-139.94,0.003-138.21,0.291-151.37-25.05c-6.59-12.689-7.061-16.954-6.207-56.184c1.003-46.128,2.784-51.395,22.284-65.962
	c8.263-6.173,12.887-6.429,131.68-7.271c122.931-0.874,123.14-0.864,136.852,6.204c21.856,11.268,25.053,20.525,25.053,72.509
	c0,40.38-0.545,44.635-7.04,54.353c-3.876,5.799-11.902,12.984-17.843,15.969c-9.723,4.88-22.853,5.42-133.4,5.433L499.12,402.28z
	 M599.76,543.7c-28.354-12.345-33.997-51.447-10.301-71.386c21.365-17.979,52.189-10.895,64.657,14.867
	c10.501,21.684,2.244,45.525-19.29,55.745c-13.03,6.2-22.183,6.4-35.07,0.78L599.76,543.7z"/>
</svg>
