<svg xmlns="http://www.w3.org/2000/svg" width="1000" height="1000" viewBox="0 0 1000 1000"><path fill="#fff" stroke="#EA0077" stroke-width="70" d="M170.508 35h658.983c74.847 0 135.509 60.673 135.509 135.509v658.982c0 74.841-60.667 135.509-135.509 135.509h-658.983c-74.841 0-135.508-60.674-135.508-135.509v-658.982c-.105-74.841 60.518-135.509 135.425-135.509h.083z"/><path fill="#ED0677" d="M312.22 266.26v256.28c.427 72.892 16.614 126.31 48.565 160.271 31.95 33.957 77.106 50.729 135.47 50.35 60.457.142 107.37-17.014 140.74-51.459 33.371-34.444 50.305-87.047 50.784-157.79v-257.65h-103.6v264.459c-.105 40.453-7.384 70.471-21.806 90.058-14.423 19.587-35.332 29.323-62.703 29.226-26.731-.035-47.234-10.029-61.522-29.998-14.28-19.96-21.495-49.719-21.639-89.284v-264.47h-104.28l-.009.007z"/></svg>