<svg xmlns="http://www.w3.org/2000/svg" width="1000" height="1000" viewBox="0 0 1000 1000"><path fill="#fff" stroke="#F6B11B" stroke-width="70" d="M170.508 35h658.983c74.847 0 135.509 60.673 135.509 135.509v658.982c0 74.841-60.667 135.509-135.509 135.509h-658.983c-74.841 0-135.508-60.674-135.508-135.509v-658.982c-.105-74.841 60.518-135.509 135.425-135.509h.083z"/><path fill="#F7B018" d="M335.05 731.4h102.93v-164.27c4.797.692 10.192 1.198 16.188 1.544 5.991.338 12.408.506 19.255.506 30.841.071 58.958-3.815 84.341-11.67 25.4-7.854 47.038-20.094 64.932-36.727 13.686-13.064 24.141-28.854 31.347-47.366 7.225-18.518 10.854-39.078 10.917-61.687-.214-22.663-4.739-43.111-13.553-61.346-8.813-18.229-20.661-33.229-35.527-44.984-15.265-12.27-34.489-21.469-57.688-27.606-23.183-6.133-50.758-9.199-82.727-9.199-31.578.053-58.899.963-81.962 2.725-23.058 1.762-42.543 4.034-58.448 6.816v453.26l-.005.004zm102.93-380.33c3.744-1.065 9.198-2.001 16.356-2.813 7.158-.808 16.015-1.233 26.581-1.277 26.044.173 46.031 6.137 59.982 17.893 13.942 11.76 20.98 28.29 21.123 49.59-.267 23.697-8.245 42.073-23.937 55.124-15.69 13.046-37.472 19.667-65.349 19.849-7.455.014-14.015-.182-19.682-.595s-10.693-1.123-15.079-2.13v-135.641h.005z"/></svg>