<svg xmlns="http://www.w3.org/2000/svg" width="1000" height="1000" viewBox="0 0 1000 1000"><path fill="#fff" stroke="#009" stroke-width="70" d="M170.508 35h658.983c74.847 0 135.509 60.673 135.509 135.509v658.982c0 74.841-60.667 135.509-135.509 135.509h-658.983c-74.841 0-135.508-60.674-135.508-135.509v-658.982c-.105-74.841 60.518-135.509 135.425-135.509h.083z"/><path fill="#009" d="M685.35 744.39c-27.302-40.304-49.646-75.596-49.646-78.427 0-3.266 4.61-6.666 12.615-9.31 16.055-5.3 38.397-24.896 47.247-41.425 6.843-12.799 6.853-12.993 6.853-195.882 0-182.887-.01-183.08-6.853-195.88-8.898-16.631-31.432-36.324-46.854-40.944-8.549-2.562-53.719-3.649-151.62-3.649h-139.45l-16.052 7.999c-18.188 9.065-29.747 21.349-39.185 41.649-6.346 13.651-6.491 17.893-6.491 190.832v176.858l8.722 17.764c10.002 20.365 28.288 37.466 46.775 43.737 8.019 2.717 12.624 6.124 12.383 9.148-.21 2.645-21.936 36.707-48.274 75.686-26.342 38.979-48.941 72.617-50.221 74.75-1.795 2.985 3.954 3.869 25.002 3.838l27.333-.039 35.606-52.83c21.94-32.55 38.016-53.404 41.888-54.347 3.458-.84 53.038-1.136 110.18-.662l103.892.868 36.058 52.753 36.058 52.742 26.838.903c14.757.485 26.833.047 26.833-.982.01-1.04-22.33-34.87-49.643-75.16l-.01.01h.016zm-268.45-215.41c-4.652 5.522-12.412 12.096-17.245 14.595-35.397 18.304-74.441-27.218-51.994-60.618 15.981-23.776 42.946-27.194 63.8-8.082 9.551 8.754 11.282 12.51 12.493 27.104 1.24 15.013.438 18.093-7.062 27.001h.008zm82.22-126.7c-139.94.003-138.21.291-151.37-25.05-6.59-12.689-7.061-16.954-6.207-56.184 1.003-46.128 2.784-51.395 22.284-65.962 8.263-6.173 12.887-6.429 131.68-7.271 122.931-.874 123.14-.864 136.852 6.204 21.856 11.268 25.053 20.525 25.053 72.509 0 40.38-.545 44.635-7.04 54.353-3.876 5.799-11.902 12.984-17.843 15.969-9.723 4.88-22.853 5.42-133.4 5.433l-.009-.001zm100.64 141.42c-28.354-12.345-33.997-51.447-10.301-71.386 21.365-17.979 52.189-10.895 64.657 14.867 10.501 21.684 2.244 45.525-19.29 55.745-13.03 6.2-22.183 6.4-35.07.78l.004-.006z"/></svg>