<svg xmlns="http://www.w3.org/2000/svg" width="1000" height="1000" viewBox="0 0 1000 1000"><path fill="#fff" stroke="#EABBD7" stroke-width="70" d="M170.508 35h658.983c74.847 0 135.509 60.673 135.509 135.509v658.982c0 74.841-60.667 135.509-135.509 135.509h-658.983c-74.841 0-135.508-60.674-135.508-135.509v-658.982c-.105-74.841 60.518-135.509 135.425-135.509h.083z"/><path fill="#EBBDD7" d="M335.05 731.4h102.93v-180.62h31.352c20.816-.214 36.946 4.979 48.396 15.583 11.438 10.616 20.075 29.943 25.896 58.025 6.826 28.356 12.932 51.565 18.318 69.607 5.387 18.043 9.947 30.513 13.714 37.401h106.34c-4.543-9.913-10.116-27.238-16.702-51.969-6.584-24.741-13.525-50.587-20.785-77.528-5.627-21.269-13.295-39.239-23.006-53.938-9.717-14.696-22.498-25.347-38.339-31.949v-2.052c20.67-7.312 39.129-20.626 55.38-39.955 16.242-19.33 24.816-43.719 25.722-73.185-.054-21.132-3.692-39.708-10.897-55.725-7.215-16.02-17.662-29.479-31.355-40.387-16.25-12.833-36.574-22.095-61-27.774-24.424-5.681-53.623-8.463-87.589-8.348-27.831.054-53.618.963-77.366 2.725-23.739 1.762-44.072 4.034-61 6.816v453.263l-.009.01zm102.93-382.38c3.658-.735 9.28-1.478 16.864-2.214 7.585-.739 17.638-1.136 30.163-1.193 24.058.329 42.739 5.81 56.062 16.445 13.32 10.634 20.085 26.512 20.277 47.623-.192 20.353-7.472 36.398-21.812 48.142-14.343 11.742-34.562 17.73-60.663 17.979h-40.891v-126.79.008z"/></svg>