<svg version="1.1" id="ligne1" xmlns="http://www.w3.org/2000/svg" xmlns:xlink="http://www.w3.org/1999/xlink" x="0px" y="0px"
	 width="1000px" height="1000px" viewBox="0 0 1000 1000" enable-background="new 0 0 1000 1000" xml:space="preserve">
<path id="rect5674_1_" fill="#FFFFFF" stroke="#C8D82C" stroke-width="70" d="M170.508,35h658.983
	C904.338,35,965,95.673,965,170.509v658.982C965,904.332,904.333,965,829.491,965H170.508C95.667,965,35,904.326,35,829.491V170.509
	C34.895,95.668,95.518,35,170.425,35H170.508z"/>
<path id="text2835" fill="#C7D52A" d="M516.02,554.94c-0.229,35.107-6.594,59.284-19.091,72.501
	c-12.496,13.216-29.758,19.499-51.795,18.822c-10.269-0.036-19.896-0.799-28.88-2.29c-9-1.488-17.094-3.461-24.282-5.884
	l-11.592,83.835c10.606,3.437,22.792,6.105,36.549,8.016c13.757,1.898,26.805,2.865,39.104,2.894
	c50.952,0.825,90.829-12.239,119.62-39.192c28.809-26.943,43.452-72.73,43.967-137.34v-290.36H516.01v289.01v-0.01L516.02,554.94z"
	/>
</svg>
