<svg version="1.1" id="ligne1" xmlns="http://www.w3.org/2000/svg" xmlns:xlink="http://www.w3.org/1999/xlink" x="0px" y="0px"
	 width="1000px" height="1000px" viewBox="0 0 1000 1000" enable-background="new 0 0 1000 1000" xml:space="preserve">
<path id="rect5674" fill="#FFFFFF" stroke="#43B8AC" stroke-width="70" d="M170.508,35h658.983C904.338,35,965,95.673,965,170.509
	v658.982C965,904.332,904.333,965,829.491,965H170.508C95.667,965,35,904.326,35,829.491V170.509
	C34.895,95.668,95.518,35,170.425,35H170.508z"/>
<path id="text3076_1_" fill="#3CB6AC" d="M405.26,729.7V591.33c0-37.355-0.347-72.545-1.021-105.561
	c-0.685-33.016-1.704-64.625-3.071-94.83l2.041-0.68c11.467,27.251,24.158,54.885,38.093,82.898
	c13.925,28.019,27.814,54.458,41.66,79.327l98.15,177.21h109.06v-459.4h-95.426v133.59c-0.062,34.636,0.568,67.775,1.873,99.43
	c1.312,31.651,3.639,62.583,6.993,92.774h-2.051c-10.365-26.198-22.011-52.858-34.933-80
	c-12.923-27.131-26.271-52.949-40.045-77.444l-95.417-168.351h-121.33v459.4h95.43L405.26,729.7z"/>
</svg>
