<svg xmlns="http://www.w3.org/2000/svg" width="1000" height="1000" viewBox="0 0 1000 1000"><path fill="#fff" stroke="#43B8AC" stroke-width="70" d="M170.508 35h658.983c74.847 0 135.509 60.673 135.509 135.509v658.982c0 74.841-60.667 135.509-135.509 135.509h-658.983c-74.841 0-135.508-60.674-135.508-135.509v-658.982c-.105-74.841 60.518-135.509 135.425-135.509h.083z"/><path fill="#3CB6AC" d="M405.26 729.7v-138.37c0-37.355-.347-72.545-1.021-105.561-.685-33.016-1.704-64.625-3.071-94.83l2.041-.68c11.467 27.251 24.158 54.885 38.093 82.898 13.925 28.019 27.814 54.458 41.66 79.327l98.15 177.21h109.06v-459.4h-95.426v133.59c-.062 34.636.568 67.775 1.873 99.43 1.312 31.651 3.639 62.583 6.993 92.774h-2.051c-10.365-26.198-22.011-52.858-34.933-80-12.923-27.131-26.271-52.949-40.045-77.444l-95.417-168.351h-121.33v459.4h95.43l-.006.007z"/></svg>