<svg version="1.1" id="ligne1" xmlns="http://www.w3.org/2000/svg" xmlns:xlink="http://www.w3.org/1999/xlink" x="0px" y="0px"
	 width="1000px" height="1000px" viewBox="0 0 1000 1000" enable-background="new 0 0 1000 1000" xml:space="preserve">
<path id="rect5674_1_" fill="#FFFFFF" stroke="#C2A705" stroke-width="70" d="M170.508,35h658.983
	C904.338,35,965,95.673,965,170.509v658.982C965,904.332,904.333,965,829.491,965H170.508C95.667,965,35,904.326,35,829.491V170.509
	C34.895,95.668,95.518,35,170.425,35H170.508z"/>
<path id="text3076" fill="#C3A500" d="M311.88,729.7H414.8V579.75l39.53-48.396L566.8,729.694h121.32l-160.17-263.78l152-195.62
	H552.49L448.2,422.984c-5.147,8.151-10.366,16.388-15.683,24.709c-5.315,8.324-10.534,16.897-15.683,25.732h-2.042v-203.12h-102.92
	v459.4L311.88,729.7z"/>
</svg>
