<svg xmlns="http://www.w3.org/2000/svg" width="1000" height="1000" viewBox="0 0 1000 1000"><path fill="#fff" stroke="#C2A705" stroke-width="70" d="M170.508 35h658.983c74.847 0 135.509 60.673 135.509 135.509v658.982c0 74.841-60.667 135.509-135.509 135.509h-658.983c-74.841 0-135.508-60.674-135.508-135.509v-658.982c-.105-74.841 60.518-135.509 135.425-135.509h.083z"/><path fill="#C3A500" d="M311.88 729.7h102.92v-149.95l39.53-48.396 112.47 198.34h121.32l-160.17-263.78 152-195.62h-127.46l-104.29 152.69c-5.147 8.151-10.366 16.388-15.683 24.709-5.315 8.324-10.534 16.897-15.683 25.732h-2.042v-203.12h-102.92v459.4l.008-.005z"/></svg>