<svg version="1.1" id="ligne1" xmlns="http://www.w3.org/2000/svg" xmlns:xlink="http://www.w3.org/1999/xlink" x="0px" y="0px"
	 width="1000px" height="1000px" viewBox="0 0 1000 1000" enable-background="new 0 0 1000 1000" xml:space="preserve">
<path id="rect5674" fill="#FFFFFF" stroke="#EA0077" stroke-width="70" d="M170.508,35h658.983C904.338,35,965,95.673,965,170.509
	v658.982C965,904.332,904.333,965,829.491,965H170.508C95.667,965,35,904.326,35,829.491V170.509
	C34.895,95.668,95.518,35,170.425,35H170.508z"/>
<path id="text2651" fill="#ED0677" d="M312.22,266.26v256.28c0.427,72.892,16.614,126.31,48.565,160.271
	c31.95,33.957,77.106,50.729,135.47,50.35c60.457,0.142,107.37-17.014,140.74-51.459c33.371-34.444,50.305-87.047,50.784-157.79
	v-257.65H584.179v264.459c-0.105,40.453-7.384,70.471-21.806,90.058c-14.423,19.587-35.332,29.323-62.703,29.226
	c-26.731-0.035-47.234-10.029-61.522-29.998c-14.28-19.96-21.495-49.719-21.639-89.284v-264.47h-104.28L312.22,266.26z"/>
</svg>
